<?xml version="1.0" encoding="utf-8"?>
<!-- Generator: Adobe Illustrator 16.0.0, SVG Export Plug-In . SVG Version: 6.00 Build 0)  -->
<!DOCTYPE svg PUBLIC "-//W3C//DTD SVG 1.1//EN" "http://www.w3.org/Graphics/SVG/1.1/DTD/svg11.dtd">
<svg version="1.1" id="Layer_1" xmlns="http://www.w3.org/2000/svg" xmlns:xlink="http://www.w3.org/1999/xlink" x="0px" y="0px"
	 width="33px" height="26px" viewBox="0 0 33 26" enable-background="new 0 0 33 26" xml:space="preserve">
<rect display="none" fill="#3A4DA1" width="33" height="26"/>
<g display="none">
	<path display="inline" fill="#FFFFFF" d="M28.221,10.756L16.856,2.435c-0.22-0.16-0.517-0.16-0.736,0L4.755,10.756
		c-0.277,0.203-0.338,0.593-0.134,0.871c0.203,0.276,0.593,0.337,0.87,0.134L16.488,3.71l10.997,8.051
		c0.111,0.081,0.24,0.121,0.367,0.121c0.19,0,0.383-0.089,0.504-0.255C28.559,11.349,28.497,10.959,28.221,10.756"/>
	<path display="inline" fill="none" stroke="#FFFFFF" stroke-width="0.5" stroke-miterlimit="10" d="M28.221,10.756L16.856,2.435
		c-0.22-0.16-0.517-0.16-0.736,0L4.755,10.756c-0.277,0.203-0.338,0.593-0.134,0.871c0.203,0.276,0.593,0.337,0.87,0.134
		L16.488,3.71l10.997,8.051c0.111,0.081,0.24,0.121,0.367,0.121c0.19,0,0.383-0.089,0.504-0.255
		C28.559,11.349,28.497,10.959,28.221,10.756z"/>
	<path display="inline" fill="#FFFFFF" d="M25.208,11.901c-0.345,0-0.623,0.279-0.623,0.623v9.916h-4.981v-5.412
		c0-1.719-1.398-3.114-3.116-3.114c-1.717,0-3.115,1.396-3.115,3.114v5.412H8.39v-9.916c0-0.344-0.279-0.623-0.623-0.623
		c-0.344,0-0.623,0.279-0.623,0.623v10.539c0,0.345,0.279,0.623,0.623,0.623h6.229c0.328,0,0.596-0.254,0.621-0.574
		c0.001-0.016,0.002-0.03,0.002-0.049v-6.035c0-1.03,0.838-1.868,1.869-1.868c1.032,0,1.87,0.838,1.87,1.868v6.035
		c0,0.019,0,0.033,0.002,0.049c0.024,0.32,0.293,0.574,0.621,0.574h6.229c0.344,0,0.623-0.278,0.623-0.623V12.524
		C25.831,12.181,25.552,11.901,25.208,11.901"/>
</g>
<path fill="#231F20" d="M11.574,10.577c-1.376,0-2.496,1.086-2.496,2.422c0,1.338,1.12,2.424,2.496,2.424
	c1.378,0,2.499-1.086,2.499-2.424C14.073,11.665,12.952,10.577,11.574,10.577 M11.574,17.261c-2.39,0-4.335-1.909-4.335-4.262
	c0-2.35,1.945-4.26,4.335-4.26c2.391,0,4.337,1.91,4.337,4.26C15.911,15.354,13.965,17.261,11.574,17.261 M10.975,22.512h1.284
	c0.229-0.519,0.601-1.461,0.903-2.271l0.141-0.38l2.035-0.824l0.351,0.15c0.832,0.354,1.813,0.752,2.354,0.944l0.893-0.872
	c-0.213-0.525-0.625-1.439-0.996-2.21l-0.178-0.374l0.852-2.015l0.363-0.142c0.836-0.324,1.809-0.72,2.334-0.957v-1.211
	c-0.528-0.222-1.49-0.586-2.316-0.879l-0.385-0.136l-0.848-2.019l0.161-0.363c0.354-0.801,0.752-1.742,0.954-2.279l-0.893-0.872
	c-0.535,0.206-1.488,0.62-2.294,0.988l-0.359,0.164l-2.033-0.821l-0.146-0.361c-0.328-0.819-0.733-1.771-0.978-2.285h-1.282
	c-0.23,0.517-0.6,1.461-0.902,2.27L9.849,6.136L7.82,6.96L7.469,6.812C6.635,6.456,5.65,6.06,5.108,5.866L4.216,6.739
	C4.43,7.267,4.843,8.178,5.212,8.95l0.177,0.373L4.538,11.34l-0.363,0.14c-0.836,0.322-1.807,0.717-2.334,0.955v1.211
	c0.53,0.227,1.493,0.588,2.32,0.883l0.382,0.136l0.846,2.015l-0.16,0.362c-0.354,0.799-0.752,1.741-0.954,2.278l0.892,0.873
	c0.535-0.207,1.487-0.619,2.291-0.987L7.82,19.04l2.032,0.824l0.146,0.362C10.329,21.045,10.732,21.999,10.975,22.512
	 M12.794,24.352h-2.34c-0.657,0-0.852-0.195-2.016-3.076L7.86,21.04c-2.45,1.106-2.751,1.106-2.933,1.106H4.555L4.26,21.879
	l-1.656-1.622c-0.481-0.478-0.481-0.729,0.782-3.598L3.16,16.123C0.201,15.063,0,14.868,0,14.191v-2.292
	c0-0.668,0.18-0.845,3.148-1.994l0.226-0.537C2.093,6.665,2.029,6.305,2.538,5.81l1.92-1.88l0.403-0.007c0.17,0,0.479,0,2.973,1.048
	l0.575-0.233C9.491,1.847,9.684,1.65,10.356,1.65h2.341c0.663,0,0.841,0.179,2.013,3.076l0.575,0.232
	c2.447-1.105,2.751-1.105,2.936-1.105h0.371l0.295,0.266l1.661,1.619c0.479,0.478,0.479,0.729-0.782,3.6l0.228,0.54
	c2.979,1.067,3.157,1.241,3.157,1.929v2.291c0,0.67-0.18,0.846-3.146,1.995l-0.227,0.539c1.324,2.793,1.328,3.071,0.845,3.554
	l-1.929,1.885l-0.403,0.009c-0.17,0-0.479,0-2.969-1.05l-0.577,0.236C13.659,24.152,13.465,24.352,12.794,24.352"/>
<path fill="#231F20" d="M27.408,12.141c-0.365,0-0.691,0.24-0.811,0.596c-0.152,0.453,0.077,0.938,0.51,1.083
	c0.428,0.145,0.912-0.12,1.059-0.555c0.152-0.45-0.076-0.938-0.508-1.084C27.576,12.154,27.49,12.141,27.408,12.141 M27.359,15.395
	c-0.254,0-0.5-0.041-0.738-0.123c-1.234-0.414-1.896-1.77-1.479-3.022c0.33-0.979,1.239-1.639,2.262-1.639
	c0.254,0,0.5,0.041,0.738,0.119c1.233,0.413,1.896,1.771,1.477,3.023C29.291,14.732,28.383,15.395,27.359,15.395 M25.814,17.486
	l0.146,0.047c0.192-0.227,0.444-0.537,0.658-0.811l0.229-0.297l1.463-0.104l0.267,0.246c0.256,0.233,0.555,0.498,0.78,0.688
	l0.164-0.084c-0.021-0.297-0.059-0.7-0.098-1.049l-0.035-0.36l0.947-1.113l0.361-0.021c0.35-0.021,0.756-0.049,1.051-0.076
	l0.064-0.195c-0.221-0.19-0.521-0.444-0.789-0.659l-0.285-0.232l-0.092-1.452l0.233-0.263c0.24-0.273,0.517-0.592,0.707-0.827
	l-0.078-0.163c-0.325,0.027-0.737,0.072-1.006,0.105l-0.377,0.047l-1.097-0.971l-0.016-0.357C29,9.227,28.977,8.816,28.953,8.515
	l-0.152-0.05c-0.191,0.227-0.443,0.54-0.658,0.811l-0.229,0.297l-1.457,0.106l-0.269-0.247c-0.254-0.234-0.557-0.498-0.778-0.689
	l-0.162,0.082c0.021,0.299,0.055,0.703,0.094,1.053l0.037,0.359l-0.944,1.114l-0.363,0.017c-0.348,0.021-0.758,0.051-1.051,0.078
	l-0.066,0.193c0.221,0.193,0.523,0.445,0.791,0.66l0.289,0.232l0.09,1.459l-0.232,0.264c-0.244,0.271-0.52,0.589-0.713,0.822
	l0.08,0.162c0.326-0.029,0.738-0.074,1.006-0.107l0.377-0.047l1.098,0.973l0.017,0.355C25.766,16.77,25.791,17.184,25.814,17.486
	 M26.311,18.766h-0.127l-1.156-0.387c-0.528-0.18-0.58-0.525-0.643-1.881c-0.35,0.037-0.852,0.089-1.111,0.089
	c-0.489,0-0.711-0.246-0.811-0.453l-0.479-0.991c-0.225-0.5-0.021-0.783,0.867-1.783l-0.002-0.017
	c-1.002-0.813-1.27-1.078-1.098-1.612l0.355-1.064c0.18-0.523,0.553-0.582,1.85-0.658l0.014-0.014
	c-0.139-1.332-0.137-1.68,0.346-1.937l1.162-0.592h0.187c0.271,0,0.377,0,1.416,0.935c0.853-1.074,1.012-1.166,1.377-1.166h0.129
	l1.151,0.387c0.529,0.173,0.584,0.552,0.644,1.881c0.351-0.038,0.854-0.09,1.113-0.09c0.493,0,0.713,0.252,0.81,0.461l0.477,0.984
	c0.246,0.477,0.039,0.762-0.863,1.785l0.002,0.016c0.982,0.801,1.275,1.092,1.088,1.631l-0.352,1.049
	c-0.158,0.521-0.533,0.58-1.848,0.658l-0.011,0.013c0.136,1.305,0.136,1.688-0.362,1.94l-1.146,0.588H29.1
	c-0.268,0-0.379,0-1.416-0.937C26.857,18.641,26.689,18.766,26.311,18.766"/>
</svg>
