<?xml version="1.0" encoding="utf-8"?>
<!-- Generator: Adobe Illustrator 16.0.0, SVG Export Plug-In . SVG Version: 6.00 Build 0)  -->
<!DOCTYPE svg PUBLIC "-//W3C//DTD SVG 1.1//EN" "http://www.w3.org/Graphics/SVG/1.1/DTD/svg11.dtd">
<svg version="1.1" id="Layer_1" xmlns="http://www.w3.org/2000/svg" xmlns:xlink="http://www.w3.org/1999/xlink" x="0px" y="0px"
	 width="46.31px" height="46.31px" viewBox="0 0 46.31 46.31" enable-background="new 0 0 46.31 46.31" xml:space="preserve">
<path fill="#4E4E4E" d="M42.601,36.717c0,0.393-0.318,0.711-0.711,0.711H3.472c-0.394,0-0.711-0.318-0.711-0.711V8.258
	c0-0.393,0.317-0.711,0.711-0.711H41.89c0.393,0,0.711,0.318,0.711,0.711V36.717z M41.89,6.125H3.472
	c-1.179,0-2.134,0.955-2.134,2.133v28.459c0,1.179,0.955,2.134,2.134,2.134H41.89c1.179,0,2.134-0.955,2.134-2.134V8.258
	C44.023,7.08,43.068,6.125,41.89,6.125"/>
<path fill="none" stroke="#4E4E4E" stroke-miterlimit="10" d="M42.601,36.717c0,0.393-0.318,0.711-0.711,0.711H3.472
	c-0.394,0-0.711-0.318-0.711-0.711V8.258c0-0.393,0.317-0.711,0.711-0.711H41.89c0.393,0,0.711,0.318,0.711,0.711V36.717z
	 M41.89,6.125H3.472c-1.179,0-2.134,0.955-2.134,2.133v28.459c0,1.179,0.955,2.134,2.134,2.134H41.89
	c1.179,0,2.134-0.955,2.134-2.134V8.258C44.023,7.08,43.068,6.125,41.89,6.125z"/>
<path fill="#4E4E4E" d="M40.528,8.973c-0.188-0.016-0.375,0.043-0.519,0.164L23.597,22.925c-0.53,0.444-1.302,0.444-1.832,0
	L5.352,9.137c-0.194-0.164-0.461-0.211-0.7-0.124C4.413,9.1,4.238,9.308,4.193,9.558c-0.044,0.25,0.049,0.505,0.244,0.669
	l16.413,13.787c1.057,0.891,2.603,0.891,3.661,0l16.413-13.787c0.144-0.121,0.233-0.295,0.251-0.482
	c0.016-0.188-0.043-0.375-0.164-0.521C40.891,9.08,40.717,8.988,40.528,8.973"/>
<path fill="none" stroke="#4E4E4E" stroke-miterlimit="10" d="M40.528,8.973c-0.188-0.016-0.375,0.043-0.519,0.164L23.597,22.925
	c-0.53,0.444-1.302,0.444-1.832,0L5.352,9.137c-0.194-0.164-0.461-0.211-0.7-0.124C4.413,9.1,4.238,9.308,4.193,9.558
	c-0.044,0.25,0.049,0.505,0.244,0.669l16.413,13.787c1.057,0.891,2.603,0.891,3.661,0l16.413-13.787
	c0.144-0.121,0.233-0.295,0.251-0.482c0.016-0.188-0.043-0.375-0.164-0.521C40.891,9.08,40.717,8.988,40.528,8.973z"/>
<path fill="#4E4E4E" d="M15.021,23.916c-0.252-0.057-0.514,0.027-0.686,0.221l-9.96,10.672c-0.182,0.184-0.247,0.452-0.173,0.699
	C4.274,35.756,4.477,35.943,4.729,36c0.252,0.056,0.515-0.028,0.687-0.221l9.96-10.673c0.18-0.184,0.247-0.452,0.173-0.698
	C15.474,24.16,15.272,23.972,15.021,23.916"/>
<path fill="none" stroke="#4E4E4E" stroke-miterlimit="10" d="M15.021,23.916c-0.252-0.057-0.514,0.027-0.686,0.221l-9.96,10.672
	c-0.182,0.184-0.247,0.452-0.173,0.699C4.274,35.756,4.477,35.943,4.729,36c0.252,0.056,0.515-0.028,0.687-0.221l9.96-10.673
	c0.18-0.184,0.247-0.452,0.173-0.698C15.474,24.16,15.272,23.972,15.021,23.916z"/>
<path fill="#4E4E4E" d="M31.026,24.137c-0.172-0.193-0.434-0.277-0.686-0.221c-0.252,0.056-0.454,0.244-0.527,0.492
	c-0.074,0.246-0.007,0.514,0.173,0.698l9.96,10.672c0.271,0.277,0.712,0.287,0.994,0.023c0.283-0.265,0.303-0.705,0.046-0.993
	L31.026,24.137z"/>
<path fill="none" stroke="#4E4E4E" stroke-miterlimit="10" d="M31.026,24.137c-0.172-0.193-0.434-0.277-0.686-0.221
	c-0.252,0.056-0.454,0.244-0.527,0.492c-0.074,0.246-0.007,0.514,0.173,0.698l9.96,10.672c0.271,0.277,0.712,0.287,0.994,0.023
	c0.283-0.265,0.303-0.705,0.046-0.993L31.026,24.137z"/>
</svg>
