<?xml version="1.0" encoding="utf-8"?>
<!-- Generator: Adobe Illustrator 16.0.0, SVG Export Plug-In . SVG Version: 6.00 Build 0)  -->
<!DOCTYPE svg PUBLIC "-//W3C//DTD SVG 1.1//EN" "http://www.w3.org/Graphics/SVG/1.1/DTD/svg11.dtd">
<svg version="1.1" id="Layer_1" xmlns="http://www.w3.org/2000/svg" xmlns:xlink="http://www.w3.org/1999/xlink" x="0px" y="0px"
	 width="46.31px" height="46.31px" viewBox="0 0 46.31 46.31" enable-background="new 0 0 46.31 46.31" xml:space="preserve">
<path fill="#FCEE23" d="M23.153,0C35.94,0,46.309,10.368,46.309,23.156c0,12.786-10.368,23.153-23.155,23.153
	C10.367,46.31,0,35.942,0,23.156C0,10.369,10.365,0,23.153,0"/>
<path fill="#0768B1" d="M33.326,30.831c0,1.378-1.119,2.498-2.498,2.498H15.43c-1.377,0-2.497-1.119-2.497-2.498V20.255h3.617
	c-0.335,0.827-0.524,1.955-0.524,2.901c0,3.928,3.194,7.124,7.123,7.124c3.931,0,7.123-3.196,7.123-7.124
	c0-0.946-0.188-2.074-0.523-2.901h3.575v10.576H33.326z M23.154,18.796c3.612,0,4.358,3.394,4.358,4.36
	c0,2.4-1.957,4.357-4.358,4.357c-2.404,0-4.359-1.957-4.359-4.357C18.794,22.189,19.54,18.796,23.154,18.796 M32.73,13.041
	l0.57-0.001v4.324l-4.355,0.014l-0.015-4.324L32.73,13.041z M31.145,10.128H15.161c-2.777,0-5.034,2.259-5.034,5.035v15.985
	c0,2.777,2.259,5.035,5.034,5.035h15.985c2.777,0,5.034-2.259,5.034-5.035V15.163C36.181,12.387,33.922,10.128,31.145,10.128"/>
</svg>
