<?xml version="1.0" encoding="utf-8"?>
<!-- Generator: Adobe Illustrator 16.0.0, SVG Export Plug-In . SVG Version: 6.00 Build 0)  -->
<!DOCTYPE svg PUBLIC "-//W3C//DTD SVG 1.1//EN" "http://www.w3.org/Graphics/SVG/1.1/DTD/svg11.dtd">
<svg version="1.1" id="Layer_1" xmlns="http://www.w3.org/2000/svg" xmlns:xlink="http://www.w3.org/1999/xlink" x="0px" y="0px"
	 width="296.5px" height="80.5px" viewBox="0 0 296.5 80.5" enable-background="new 0 0 296.5 80.5" xml:space="preserve">
<g>
	<g>
		<defs>
			<rect id="SVGID_1_" x="0.612" y="0.792" width="295" height="79"/>
		</defs>
		<clipPath id="SVGID_2_">
			<use xlink:href="#SVGID_1_"  overflow="visible"/>
		</clipPath>
		<path clip-path="url(#SVGID_2_)" fill="#FFF200" d="M26.657,40.997c-1.5,0.77-3.21,1.155-5.132,1.155
			c-1.694,0-3.163-0.42-4.407-1.264c-1.244-0.842-2.095-2.063-2.551-3.66c-0.456-1.597-0.429-3.487,0.082-5.67
			c0.417-1.782,1.157-3.515,2.221-5.201c1.063-1.686,2.44-3.065,4.134-4.141s3.631-1.614,5.813-1.614
			c1.873,0,3.263,0.361,4.168,1.084c0.906,0.722,1.726,1.709,2.458,2.961l5.7-3.684c-1.341-2.2-2.977-4.001-4.902-5.406
			c-1.925-1.404-4.86-2.107-8.801-2.107c-3.341,0-6.408,0.57-9.209,1.709c-2.8,1.14-5.229,2.632-7.29,4.479
			c-2.062,1.846-3.756,3.885-5.085,6.116s-2.244,4.415-2.743,6.549c-0.526,2.248-0.638,4.426-0.333,6.538
			c0.303,2.11,1.041,4.017,2.214,5.718c1.173,1.702,2.82,3.051,4.941,4.046c2.12,0.995,4.695,1.492,7.724,1.492
			c2.475,0,4.765-0.285,6.87-0.854c2.103-0.57,3.903-1.268,5.399-2.096c1.496-0.827,2.749-1.653,3.758-2.48
			c1.008-0.826,1.877-1.616,2.606-2.372l-3.254-4.045C29.617,39.312,28.157,40.227,26.657,40.997 M65.988,30.054
			c0.108-0.747,0.121-1.549,0.037-2.409c-0.084-0.858-0.349-1.706-0.796-2.54c-0.448-0.835-1.132-1.581-2.054-2.24
			c-1.925-1.444-4.728-2.167-8.409-2.167c-2.476,0-4.686,0.313-6.632,0.938c-1.947,0.626-3.569,1.365-4.868,2.216
			c-1.298,0.85-2.657,1.902-4.074,3.154l2.736,2.817c0.842-0.675,1.602-1.24,2.278-1.698c0.678-0.458,1.497-0.863,2.458-1.216
			c0.965-0.353,1.99-0.53,3.081-0.53c1.498,0,2.636,0.394,3.413,1.18c0.71,0.723,1.079,1.51,1.108,2.36
			c0.029,0.852-0.092,1.853-0.362,3.01c-0.932-0.337-1.892-0.619-2.881-0.843c-0.99-0.224-2.152-0.337-3.487-0.337
			c-2.037,0-3.966,0.366-5.791,1.096c-1.824,0.73-3.377,1.802-4.662,3.214c-1.283,1.413-2.149,3.082-2.602,5.009
			c-0.286,1.22-0.353,2.368-0.196,3.443c0.155,1.076,0.531,2.026,1.127,2.854c0.597,0.826,1.412,1.466,2.446,1.914
			c1.035,0.449,2.237,0.677,3.603,0.677c2.2,0,4.01-0.408,5.431-1.225c1.42-0.815,2.77-1.871,4.052-3.167l-0.843,3.596h11.506
			l3.847-16.422C65.702,31.695,65.877,30.8,65.988,30.054 M49.874,42.995c-0.584,0.306-1.242,0.458-1.976,0.458
			c-0.879,0-1.515-0.294-1.906-0.882c-0.393-0.589-0.499-1.262-0.321-2.02c0.199-0.854,0.694-1.623,1.48-2.307
			c0.787-0.685,1.874-1.028,3.258-1.028c0.537,0,1.34,0.122,2.407,0.363l-0.938,4.013C51.127,42.221,50.46,42.689,49.874,42.995
			 M72.421,22.191L66.104,49.16h11.262l4.411-18.83c0.515-0.529,1.027-0.952,1.542-1.264c0.513-0.313,1.185-0.469,2.016-0.469
			c1.417,0,2.203,0.465,2.36,1.396c0.156,0.931,0.082,2.046-0.223,3.347l-3.706,15.82h11.41l4.41-18.83
			c0.635-0.562,1.227-0.999,1.778-1.312c0.552-0.313,1.218-0.47,1.997-0.47c2.062,0,2.755,1.429,2.087,4.287l-3.825,16.325h11.409
			l4.463-19.047c0.321-1.381,0.497-2.588,0.519-3.624c0.023-1.036-0.303-1.994-0.976-2.878c-1.246-1.701-3.449-2.552-6.609-2.552
			c-1.71,0-3.234,0.27-4.573,0.807c-1.34,0.538-2.403,1.136-3.193,1.794c-0.79,0.658-1.631,1.469-2.523,2.432
			c-0.258-1.268-0.853-2.417-1.784-3.443c-0.932-1.027-2.685-1.541-5.258-1.541c-1.792,0-3.366,0.272-4.725,0.819
			c-1.356,0.546-2.467,1.184-3.331,1.914c-0.863,0.732-1.622,1.482-2.273,2.252l0.913-3.901H72.421z M129.646,49.16l0.86-3.674
			c0.505,0.902,0.993,1.65,1.465,2.248c0.472,0.596,1.153,1.104,2.047,1.533c0.894,0.426,2.032,0.64,3.418,0.64
			c1.546,0,3.113-0.35,4.703-1.047c1.589-0.698,3.092-1.694,4.511-2.987c1.418-1.291,2.667-2.857,3.75-4.694
			c1.081-1.837,1.872-3.816,2.367-5.936c0.395-1.686,0.556-3.347,0.482-4.984c-0.072-1.637-0.434-3.155-1.084-4.551
			c-0.649-1.397-1.656-2.52-3.021-3.371c-1.363-0.851-3.097-1.277-5.197-1.277c-1.06,0-2.045,0.129-2.961,0.385
			c-0.915,0.257-1.73,0.59-2.445,1c-0.715,0.409-1.283,0.787-1.706,1.132c-0.424,0.345-0.926,0.782-1.505,1.312l2.47-10.547h-11.457
			l-8.156,34.82h11.457V49.16z M136,28.705c0.521-0.201,1.088-0.302,1.708-0.302c1.368,0,2.352,0.622,2.947,1.864
			c0.596,1.242,0.637,2.968,0.118,5.179c-0.47,2.004-1.237,3.65-2.306,4.941c-1.067,1.29-2.367,1.934-3.897,1.934
			c-1.091,0-2.109-0.376-3.059-1.131l2.731-11.658C134.896,29.182,135.482,28.904,136,28.705 M159.988,22.143L153.66,49.16h11.408
			l4.331-18.493c0.659-0.449,1.335-0.815,2.028-1.095c0.692-0.281,1.61-0.422,2.75-0.422c1.058,0,1.93,0.154,2.615,0.458
			c0.687,0.305,1.439,0.754,2.263,1.349l2.228-9.512c-0.598-0.096-1.188-0.145-1.773-0.145c-3.553,0-6.597,1.743-9.14,5.225
			l1.025-4.383H159.988z M188.093,49.112l6.315-26.97h-11.505l-6.317,26.97H188.093z M215.203,22.003
			c-1.018-0.742-2.576-1.112-4.681-1.112c-1.907,0-3.7,0.394-5.376,1.181c-1.677,0.787-3.179,1.874-4.507,3.263
			c-1.327,1.388-2.46,2.985-3.397,4.791c-0.937,1.805-1.632,3.681-2.087,5.622c-0.439,1.878-0.604,3.697-0.495,5.455
			c0.111,1.757,0.503,3.283,1.179,4.574c0.677,1.293,1.665,2.311,2.966,3.059c1.3,0.747,2.864,1.121,4.69,1.121
			c1.532,0,2.904-0.234,4.114-0.701c1.21-0.469,2.186-0.995,2.926-1.584c0.742-0.588,1.488-1.275,2.246-2.064l-0.833,3.553h11.508
			l8.154-34.819h-11.506l-2.451,10.463C217.036,23.678,216.22,22.743,215.203,22.003 M211.945,42.082
			c-0.461,0.16-1.009,0.239-1.645,0.239c-1.53,0-2.556-0.633-3.074-1.895c-0.52-1.264-0.549-2.872-0.09-4.823
			c0.357-1.536,0.878-2.853,1.559-3.947c0.68-1.096,1.449-1.924,2.304-2.484c0.854-0.56,1.749-0.839,2.678-0.839
			c0.649,0,1.195,0.103,1.638,0.311c0.438,0.208,0.856,0.48,1.25,0.815l-2.771,11.83C213.021,41.657,212.406,41.922,211.945,42.082
			 M229.259,55.565c0.642,0.947,1.697,1.789,3.17,2.528c1.904,0.979,4.396,1.469,7.474,1.469c5.112,0,9.357-1.333,12.734-3.997
			c1.416-1.108,2.548-2.319,3.393-3.637c0.847-1.316,1.466-2.536,1.859-3.659c0.394-1.124,0.746-2.351,1.06-3.684l5.245-22.395
			h-11.459l-0.784,3.347c-0.361-0.818-0.775-1.532-1.244-2.143c-0.468-0.611-1.154-1.12-2.06-1.529
			c-0.906-0.409-2.085-0.614-3.533-0.614c-2.199,0-4.315,0.574-6.353,1.722c-2.035,1.148-3.806,2.761-5.311,4.84
			c-1.504,2.079-2.561,4.41-3.163,6.996c-0.44,1.877-0.565,3.623-0.373,5.237c0.191,1.613,0.678,3.014,1.46,4.201
			c0.777,1.188,1.794,2.092,3.041,2.71c1.249,0.618,2.67,0.928,4.266,0.928c1.498,0,2.854-0.226,4.067-0.675
			c1.212-0.449,2.171-0.939,2.871-1.469c0.702-0.53,1.374-1.116,2.013-1.757c-0.537,2.086-0.979,3.547-1.318,4.382
			c-0.343,0.835-0.888,1.661-1.633,2.48c-0.793,0.885-1.788,1.622-2.984,2.215c-1.198,0.594-2.498,0.892-3.898,0.892
			c-1.793,0-3.133-0.41-4.024-1.229c-0.891-0.817-1.659-1.862-2.308-3.129l-4.063,2.431C228,53.438,228.618,54.617,229.259,55.565
			 M245.371,40.492c-1.06,0-1.875-0.305-2.449-0.916c-0.573-0.609-0.886-1.396-0.937-2.36c-0.086-0.674-0.006-1.541,0.241-2.601
			c0.467-1.99,1.256-3.482,2.368-4.479c1.112-0.995,2.256-1.492,3.429-1.492c1.124,0,2.09,0.426,2.9,1.276l-2.216,9.463
			C247.428,40.123,246.315,40.492,245.371,40.492 M287.868,41.996c-0.813,0.555-1.729,1.017-2.742,1.384
			c-1.017,0.37-2.102,0.556-3.257,0.556c-1.825,0-3.266-0.459-4.321-1.372c-0.747-0.628-1.204-1.294-1.363-2.001
			c-0.16-0.706-0.21-1.605-0.15-2.696h18.665c0.425-1.814,0.714-3.532,0.866-5.153c0.149-1.622-0.046-3.323-0.589-5.105
			c-0.544-1.781-1.681-3.291-3.411-4.526c-2.021-1.524-4.69-2.288-8.014-2.288c-2.932,0-5.688,0.626-8.271,1.878
			c-2.581,1.251-4.752,2.994-6.512,5.225c-1.761,2.232-2.971,4.752-3.628,7.562c-0.662,2.826-0.623,5.332,0.119,7.523
			c0.738,2.191,2.146,3.902,4.221,5.131c2.073,1.226,4.685,1.842,7.826,1.842c5.668,0,10.718-2.336,15.15-7.007l-2.401-2.577
			C289.412,40.901,288.681,41.442,287.868,41.996 M278.961,28.452c0.792-1.06,1.914-1.59,3.364-1.59
			c1.578,0,2.488,0.534,2.728,1.602s0.224,2.348-0.044,3.841h-8.062C277.495,30.796,278.167,29.512,278.961,28.452"/>
	</g>
	<g>
		<defs>
			<rect id="SVGID_3_" x="0.612" y="0.792" width="295" height="79"/>
		</defs>
		<clipPath id="SVGID_4_">
			<use xlink:href="#SVGID_3_"  overflow="visible"/>
		</clipPath>
		<path clip-path="url(#SVGID_4_)" fill="#EC008C" d="M190.133,18.852c2.634,0,4.97-0.493,7.01-1.478
			c2.039-0.985,3.675-2.182,4.908-3.588c1.234-1.408,1.997-2.736,2.291-3.987c0.213-0.907,0.209-1.876-0.01-2.908
			c-0.219-1.033-0.712-2.009-1.478-2.932c-0.769-0.921-1.853-1.681-3.251-2.275c-1.399-0.594-3.146-0.891-5.24-0.891
			c-2.633,0-4.969,0.493-7.009,1.478c-2.037,0.985-3.673,2.165-4.898,3.541c-1.227,1.377-1.988,2.706-2.289,3.987
			c-0.559,2.376,0.119,4.502,2.027,6.379C184.029,17.959,186.675,18.852,190.133,18.852"/>
	</g>
	<g>
		<defs>
			<rect id="SVGID_5_" x="0.612" y="0.792" width="295" height="79"/>
		</defs>
		<clipPath id="SVGID_6_">
			<use xlink:href="#SVGID_5_"  overflow="visible"/>
		</clipPath>
		<path clip-path="url(#SVGID_6_)" fill="none" stroke="#FFFFFF" stroke-width="4.929" stroke-miterlimit="1.833" d="
			M147.709,60.345h-3.077l0.269-1.106c0.339-1.402,1.449-2.737,3.363-2.737c0.545,0,0.892,0.132,1.357,0.326l1.901-2.216
			c-1.567-1.138-2.931-1.727-5.185-1.727c-3.145,0-6.56,1.401-8.379,4.399c-0.579,0.977-0.901,2.02-1.152,3.062h-2.153l-1.018,4.203
			h2.152l-2.927,12.086h7.827l2.927-12.086h3.077L147.709,60.345z M168.842,67.643c0.874-3.615-0.127-9.644-8.772-9.644
			c-6.153,0-11.883,3.617-13.366,9.741c-1.443,5.962,2.423,9.609,8.438,9.609C163.995,77.35,167.936,71.389,168.842,67.643z
			 M160.625,67.839c-0.813,3.354-2.188,5.504-4.204,5.504c-2.222,0-2.214-2.573-1.416-5.863c0.804-3.323,2.264-5.538,4.178-5.538
			C161.233,61.941,161.59,63.864,160.625,67.839z M193.041,67.643c0.876-3.615-0.125-9.644-8.772-9.644
			c-6.152,0-11.883,3.617-13.366,9.741c-1.444,5.962,2.424,9.609,8.439,9.609C188.194,77.35,192.134,71.389,193.041,67.643z
			 M184.825,67.839c-0.813,3.354-2.188,5.504-4.205,5.504c-2.223,0-2.214-2.573-1.417-5.863c0.807-3.323,2.266-5.538,4.18-5.538
			C185.433,61.941,185.786,63.864,184.825,67.839z M214.344,76.633l5.572-22.999h-7.861l-1.673,6.907
			c-1.071-1.791-2.412-2.605-4.873-2.605c-5.707,0-9.354,5.18-10.507,9.933c-1.128,4.659,0.246,9.285,5.715,9.285
			c2.495,0,4.493-0.912,6.334-2.866l-0.568,2.346H214.344L214.344,76.633z M207.746,71.422c-0.855,0.424-1.474,0.716-2.396,0.716
			c-2.529,0-2.631-2.54-2.149-4.527c0.481-1.986,1.904-4.756,4.502-4.756c0.819,0,1.391,0.325,1.938,0.75L207.746,71.422z"/>
	</g>
	<g>
		<defs>
			<rect id="SVGID_7_" x="0.612" y="0.792" width="295" height="79"/>
		</defs>
		<clipPath id="SVGID_8_">
			<use xlink:href="#SVGID_7_"  overflow="visible"/>
		</clipPath>
		<path clip-path="url(#SVGID_8_)" fill="#EC008C" d="M147.141,60.084h-3.137l0.272-1.167c0.347-1.478,1.478-2.887,3.432-2.887
			c0.558,0,0.907,0.138,1.382,0.344l1.941-2.338c-1.601-1.202-2.988-1.82-5.29-1.82c-3.207,0-6.689,1.479-8.546,4.639
			c-0.59,1.03-0.917,2.13-1.175,3.23h-2.196l-1.038,4.433h2.195l-2.986,12.747h7.983l2.985-12.747h3.137L147.141,60.084z
			 M168.692,67.78c0.893-3.813-0.128-10.169-8.946-10.169c-6.273,0-12.118,3.813-13.632,10.271
			c-1.472,6.289,2.472,10.136,8.607,10.136C163.75,78.019,167.767,71.731,168.692,67.78 M160.313,67.986
			c-0.829,3.539-2.23,5.807-4.289,5.807c-2.264,0-2.256-2.714-1.442-6.185c0.819-3.505,2.309-5.841,4.261-5.841
			C160.932,61.768,161.295,63.795,160.313,67.986 M193.37,67.78c0.895-3.813-0.127-10.169-8.946-10.169
			c-6.273,0-12.117,3.813-13.631,10.271c-1.473,6.289,2.472,10.136,8.606,10.136C188.429,78.019,192.444,71.731,193.37,67.78
			 M184.991,67.986c-0.829,3.539-2.23,5.807-4.287,5.807c-2.266,0-2.257-2.714-1.444-6.185c0.821-3.505,2.311-5.841,4.262-5.841
			C185.612,61.768,185.974,63.795,184.991,67.986 M215.096,77.264l5.683-24.257h-8.017l-1.706,7.284
			c-1.091-1.891-2.459-2.75-4.969-2.75c-5.822,0-9.541,5.464-10.717,10.48c-1.149,4.913,0.252,9.791,5.828,9.791
			c2.545,0,4.583-0.962,6.462-3.023l-0.58,2.475H215.096z M208.366,71.767c-0.87,0.445-1.502,0.755-2.441,0.755
			c-2.58,0-2.685-2.68-2.193-4.775c0.491-2.097,1.941-5.016,4.592-5.016c0.837,0,1.418,0.343,1.978,0.789L208.366,71.767z"/>
	</g>
</g>
</svg>
