<?xml version="1.0" encoding="utf-8"?>
<!-- Generator: Adobe Illustrator 16.0.0, SVG Export Plug-In . SVG Version: 6.00 Build 0)  -->
<!DOCTYPE svg PUBLIC "-//W3C//DTD SVG 1.1//EN" "http://www.w3.org/Graphics/SVG/1.1/DTD/svg11.dtd">
<svg version="1.1" id="Layer_1" xmlns="http://www.w3.org/2000/svg" xmlns:xlink="http://www.w3.org/1999/xlink" x="0px" y="0px"
	 width="309.333px" height="40px" viewBox="0 0 309.333 40" enable-background="new 0 0 309.333 40" xml:space="preserve">
<path fill="#FFFFFF" d="M146.306,6.147v29.507c0,0.485-0.422,0.879-0.942,0.879h-3.608c-0.52,0-0.942-0.394-0.942-0.879V13.526
	l-9.26,12.9c-0.315,0.456-1.078,0.456-1.388,0l-9.176-12.815v22.043c0,0.485-0.423,0.879-0.941,0.879h-3.519
	c-0.521,0-0.942-0.394-0.942-0.879V6.147c0-0.486,0.421-0.881,0.942-0.881h4.393c0.319,0,0.619,0.152,0.792,0.403l6.127,8.896
	l3.104,4.506l3.105-4.506l6.126-8.896c0.175-0.251,0.474-0.403,0.792-0.403h4.395C145.884,5.267,146.306,5.661,146.306,6.147
	 M194.977,33.6l1.289-2.237c0.244-0.459,0.922-0.63,1.535-0.285c0,0,2.7,1.491,5.709,1.491c1.842,0,3.01-0.688,3.01-1.952
	c0-1.547-1.35-2.293-4.729-3.728c-3.807-1.549-6.998-3.729-6.998-7.514c0-2.87,2.518-6.309,8.411-6.309
	c3.438,0,6.017,1.031,7.245,1.777c0.553,0.344,0.857,1.089,0.492,1.661l-1.107,1.953c-0.306,0.516-1.105,0.686-1.597,0.457
	c0,0-2.698-1.203-5.033-1.203c-2.087,0-2.765,0.86-2.765,1.721c0,1.489,1.535,2.121,3.931,3.097
	c4.481,1.835,8.167,3.612,8.167,7.916c0,3.556-3.623,6.71-9.089,6.71c-4.114,0-6.815-1.376-8.103-2.352
	C194.977,34.576,194.732,34.059,194.977,33.6 M175.395,34.804c1.291,0.976,3.992,2.352,8.105,2.352c5.465,0,9.086-3.154,9.086-6.71
	c0-4.304-3.684-6.081-8.166-7.916c-2.393-0.976-3.928-1.607-3.928-3.097c0-0.86,0.675-1.721,2.764-1.721
	c2.332,0,5.033,1.203,5.033,1.203c0.491,0.229,1.289,0.059,1.596-0.457l1.108-1.953c0.366-0.572,0.06-1.317-0.493-1.661
	c-1.23-0.746-3.807-1.777-7.244-1.777c-5.896,0-8.412,3.438-8.412,6.309c0,3.785,3.192,5.965,6.998,7.514
	c3.377,1.435,4.728,2.181,4.728,3.728c0,1.264-1.165,1.952-3.005,1.952c-3.012,0-5.713-1.491-5.713-1.491
	c-0.612-0.345-1.289-0.174-1.534,0.285l-1.289,2.237C174.783,34.059,175.029,34.576,175.395,34.804 M159.856,33.082
	c2.455,0,4.789-1.72,5.525-2.867v-3.671c-0.367-0.228-2.086-0.916-4.296-0.916c-2.946,0-4.976,1.432-4.976,3.784
	C156.11,31.478,157.583,33.082,159.856,33.082 M160.592,22.07c2.58,0,4.851,0.688,4.851,0.688c0.062-3.615-0.675-5.047-3.806-5.047
	c-2.824,0-5.588,0.688-6.876,1.032c-0.738,0.171-1.168-0.286-1.351-0.919l-0.49-2.122c-0.187-0.744,0.242-1.147,0.797-1.318
	c0.428-0.173,3.928-1.318,8.473-1.318c7.859,0,8.595,4.473,8.595,10.209v12.217c0,0.575-0.553,1.091-1.165,1.091h-1.721
	c-0.553,0-0.797-0.23-1.043-0.804l-0.614-1.548c-1.351,1.202-3.746,2.924-7.552,2.924c-4.605,0-7.921-2.924-7.921-7.685
	C150.769,25.282,154.33,22.07,160.592,22.07"/>
<path fill="#FFFFFF" d="M285.498,2.227c0-0.574,0.553-1.089,1.167-1.089h3.561c0.615,0,1.165,0.515,1.165,1.089v13.309
	c0.614-0.399,3.44-2.465,7.369-2.465c6.937,0,10.253,4.646,10.253,10.897v11.529c0,0.574-0.552,1.091-1.164,1.091h-3.439
	c-0.677,0-1.169-0.517-1.169-1.091V23.854c0-3.729-2.023-5.791-5.218-5.791c-3.745,0-6.324,2.636-6.632,3.61v13.824
	c0,0.632-0.429,1.091-1.226,1.091h-3.5c-0.614,0-1.167-0.517-1.167-1.091V2.227z"/>
<path fill="#FFFFFF" d="M264.365,34.809c1.289,0.974,3.99,2.352,8.104,2.352c5.464,0,9.088-3.153,9.088-6.709
	c0-4.304-3.687-6.082-8.167-7.916c-2.396-0.977-3.931-1.607-3.931-3.098c0-0.861,0.677-1.721,2.764-1.721
	c2.334,0,5.035,1.203,5.035,1.203c0.49,0.229,1.289,0.059,1.598-0.457l1.104-1.952c0.369-0.572,0.061-1.318-0.49-1.662
	c-1.229-0.746-3.808-1.778-7.246-1.778c-5.895,0-8.41,3.44-8.41,6.31c0,3.786,3.19,5.965,6.998,7.514
	c3.378,1.435,4.728,2.18,4.728,3.729c0,1.263-1.166,1.95-3.007,1.95c-3.009,0-5.71-1.49-5.71-1.49
	c-0.614-0.346-1.291-0.175-1.536,0.286l-1.289,2.236C263.75,34.063,263.996,34.581,264.365,34.809"/>
<path fill="#FFFFFF" d="M214.709,25.172c0,6.884,5.959,11.988,12.832,11.988c4.237,0,7.554-1.893,9.518-4.818
	c0.43-0.573,0.184-1.146-0.43-1.605l-1.657-1.261c-0.554-0.402-1.106-0.402-1.66,0.113c-1.287,1.147-2.575,2.64-5.708,2.64
	c-3.99,0-7.061-3.155-7.061-7.113c0-3.9,3.134-7.053,7.123-7.053c2.023,0,3.806,1.03,4.912,2.176
	c0.489,0.402,0.92,0.861,1.656,0.231l2.027-1.721c0.551-0.402,0.675-1.089,0.246-1.606c-2.273-2.639-5.159-4.072-8.904-4.072
	C220.79,13.07,214.709,18.404,214.709,25.172"/>
<path fill="#FFFFFF" d="M248.972,33.057c2.455,0,4.789-1.719,5.524-2.867v-3.671c-0.367-0.229-2.086-0.916-4.295-0.916
	c-2.947,0-4.976,1.433-4.976,3.785C245.226,31.452,246.7,33.057,248.972,33.057 M249.708,22.046c2.579,0,4.852,0.688,4.852,0.688
	c0.06-3.614-0.675-5.046-3.806-5.046c-2.825,0-5.589,0.687-6.876,1.032c-0.739,0.17-1.168-0.287-1.353-0.919l-0.489-2.123
	c-0.187-0.743,0.241-1.146,0.797-1.318c0.428-0.173,3.929-1.319,8.474-1.319c7.858,0,8.594,4.475,8.594,10.211v12.217
	c0,0.573-0.552,1.09-1.164,1.09h-1.722c-0.551,0-0.797-0.23-1.043-0.804l-0.613-1.549c-1.352,1.203-3.747,2.925-7.553,2.925
	c-4.605,0-7.922-2.925-7.922-7.685C239.883,25.258,243.446,22.046,249.708,22.046"/>
<path fill="#FFFFFF" d="M0.667,32.592h3.846v-8.007c0.505,0.095,1.166,0.126,1.891,0.126c2.743,0,5.17-0.726,6.715-2.271
	c1.198-1.135,1.829-2.805,1.829-4.823c0-1.985-0.82-3.656-2.081-4.696c-1.356-1.136-3.436-1.734-6.273-1.734
	c-2.617,0-4.54,0.19-5.927,0.441V32.592z M4.513,14.339c0.41-0.095,1.166-0.189,2.238-0.189c2.68,0,4.319,1.261,4.319,3.626
	c0,2.49-1.765,3.909-4.666,3.909c-0.788,0-1.418-0.032-1.891-0.158V14.339z M17.752,32.592h3.878v-7.944
	c0-0.441,0.062-0.851,0.126-1.198c0.346-1.733,1.607-2.932,3.467-2.932c0.473,0,0.82,0.063,1.135,0.126v-3.656
	c-0.315-0.063-0.536-0.095-0.914-0.095c-1.639,0-3.436,1.103-4.193,3.278h-0.126L21,17.239h-3.373
	c0.094,1.387,0.126,2.869,0.126,4.949V32.592z M35.659,16.893c-4.635,0-7.945,3.089-7.945,8.133c0,4.918,3.342,7.913,7.692,7.913
	c3.909,0,7.881-2.522,7.881-8.165C43.287,20.108,40.229,16.893,35.659,16.893 M35.563,19.729c2.648,0,3.72,2.743,3.72,5.139
	c0,3.089-1.545,5.265-3.751,5.265c-2.365,0-3.815-2.238-3.815-5.202C31.717,22.378,32.821,19.729,35.563,19.729 M60.215,17.239
	h-3.877v9.269c0,0.44-0.095,0.851-0.222,1.197c-0.409,0.978-1.418,2.08-2.963,2.08c-2.049,0-2.869-1.639-2.869-4.191v-8.354h-3.877
	v9.017c0,5.012,2.554,6.683,5.36,6.683c2.742,0,4.255-1.577,4.917-2.68h0.063l0.189,2.333h3.405
	c-0.063-1.262-0.126-2.774-0.126-4.603V17.239z M74.685,10.21v8.699h-0.063c-0.694-1.134-2.207-2.017-4.319-2.017
	c-3.688,0-6.904,3.058-6.872,8.196c0,4.729,2.9,7.85,6.556,7.85c2.239,0,4.099-1.072,5.013-2.774h0.063l0.158,2.428h3.468
	c-0.064-1.041-0.127-2.742-0.127-4.319V10.21H74.685z M74.685,25.94c0,0.409-0.032,0.788-0.127,1.134
	c-0.378,1.671-1.765,2.743-3.341,2.743c-2.458,0-3.846-2.049-3.846-4.854c0-2.869,1.388-5.076,3.877-5.076
	c1.766,0,2.995,1.229,3.342,2.743c0.063,0.315,0.095,0.693,0.095,1.009V25.94z M82.723,32.592h3.909V10.21h-3.909V32.592z
	 M88.996,17.239l5.612,14.091c0.189,0.379,0.22,0.6,0.22,0.758c0,0.188-0.094,0.408-0.252,0.692
	c-0.536,1.041-1.387,1.955-2.112,2.429c-0.788,0.566-1.608,0.912-2.27,1.07l0.883,3.279c0.977-0.127,2.554-0.631,4.066-1.986
	c1.829-1.576,3.248-4.13,5.359-9.867l3.846-10.466h-4.161l-2.396,8.196c-0.283,1.009-0.567,2.144-0.819,3.026h-0.095
	c-0.22-0.883-0.536-2.05-0.851-2.994l-2.774-8.229H88.996z"/>
</svg>
