<?xml version="1.0" encoding="utf-8"?>
<!-- Generator: Adobe Illustrator 16.0.0, SVG Export Plug-In . SVG Version: 6.00 Build 0)  -->
<!DOCTYPE svg PUBLIC "-//W3C//DTD SVG 1.1//EN" "http://www.w3.org/Graphics/SVG/1.1/DTD/svg11.dtd">
<svg version="1.1" id="Layer_1" xmlns="http://www.w3.org/2000/svg" xmlns:xlink="http://www.w3.org/1999/xlink" x="0px" y="0px"
	 width="46.125px" height="46.308px" viewBox="0 0 46.125 46.308" enable-background="new 0 0 46.125 46.308" xml:space="preserve">
<g>
	<defs>
		<rect id="SVGID_1_" x="0.061" width="46.186" height="46.186"/>
	</defs>
	<clipPath id="SVGID_2_">
		<use xlink:href="#SVGID_1_"  overflow="visible"/>
	</clipPath>
	<path clip-path="url(#SVGID_2_)" fill="#FFF200" d="M23.154,0c12.753,0,23.093,10.34,23.093,23.093
		c0,12.753-10.34,23.093-23.093,23.093S0.061,35.846,0.061,23.093C0.061,10.34,10.399,0,23.154,0"/>
	<path clip-path="url(#SVGID_2_)" fill="#0067B1" d="M30.98,12.342c-1.851-1.777-4.412-2.756-7.213-2.756
		c-4.277,0-6.908,1.753-8.362,3.225c-1.792,1.812-2.819,4.219-2.819,6.604c0,2.993,1.252,5.291,3.349,6.146
		c0.141,0.058,0.283,0.086,0.421,0.086c0.442,0,0.792-0.289,0.915-0.753c0.071-0.267,0.234-0.924,0.306-1.209
		c0.153-0.563,0.029-0.834-0.303-1.226c-0.606-0.718-0.889-1.566-0.889-2.67c0-3.28,2.442-6.766,6.969-6.766
		c3.592,0,5.822,2.042,5.822,5.327c0,2.074-0.446,3.995-1.258,5.408c-0.563,0.982-1.555,2.153-3.077,2.153
		c-0.657,0-1.249-0.271-1.622-0.741c-0.352-0.446-0.468-1.021-0.327-1.621c0.16-0.678,0.378-1.385,0.59-2.068
		c0.385-1.248,0.75-2.427,0.75-3.368c0-1.609-0.989-2.69-2.462-2.69c-1.871,0-3.336,1.9-3.336,4.325c0,1.19,0.316,2.079,0.459,2.421
		c-0.235,0.999-1.636,6.935-1.901,8.054c-0.154,0.653-1.08,5.813,0.452,6.226c1.721,0.463,3.259-4.564,3.416-5.133
		c0.127-0.461,0.571-2.208,0.843-3.282c0.831,0.8,2.168,1.342,3.47,1.342c2.453,0,4.66-1.104,6.212-3.109
		c1.507-1.943,2.337-4.654,2.337-7.631C33.722,16.308,32.724,14.014,30.98,12.342"/>
</g>
</svg>
