<?xml version="1.0" encoding="utf-8"?>
<!-- Generator: Adobe Illustrator 16.0.0, SVG Export Plug-In . SVG Version: 6.00 Build 0)  -->
<!DOCTYPE svg PUBLIC "-//W3C//DTD SVG 1.1//EN" "http://www.w3.org/Graphics/SVG/1.1/DTD/svg11.dtd">
<svg version="1.1" id="Layer_1" xmlns="http://www.w3.org/2000/svg" xmlns:xlink="http://www.w3.org/1999/xlink" x="0px" y="0px"
	 width="33px" height="26px" viewBox="0 0 33 26" enable-background="new 0 0 33 26" xml:space="preserve">
<rect display="none" fill="#3A4DA1" width="33" height="26"/>
<g display="none">
	<path display="inline" fill="#FFFFFF" d="M28.22,10.756L16.856,2.435c-0.22-0.16-0.517-0.16-0.736,0L4.755,10.756
		c-0.277,0.203-0.338,0.593-0.134,0.871c0.203,0.276,0.593,0.337,0.87,0.134L16.488,3.71l10.996,8.051
		c0.111,0.081,0.24,0.121,0.367,0.121c0.191,0,0.383-0.089,0.504-0.255C28.558,11.349,28.497,10.959,28.22,10.756"/>
	<path display="inline" fill="none" stroke="#FFFFFF" stroke-width="0.5" stroke-miterlimit="10" d="M28.22,10.756L16.856,2.435
		c-0.22-0.16-0.517-0.16-0.736,0L4.755,10.756c-0.277,0.203-0.338,0.593-0.134,0.871c0.203,0.276,0.593,0.337,0.87,0.134
		L16.488,3.71l10.996,8.051c0.111,0.081,0.24,0.121,0.367,0.121c0.191,0,0.383-0.089,0.504-0.255
		C28.558,11.349,28.497,10.959,28.22,10.756z"/>
	<path display="inline" fill="#FFFFFF" d="M25.208,11.901c-0.344,0-0.623,0.279-0.623,0.623v9.916h-4.982v-5.412
		c0-1.719-1.398-3.115-3.115-3.115s-3.115,1.396-3.115,3.115v5.412H8.39v-9.916c0-0.344-0.279-0.623-0.623-0.623
		c-0.344,0-0.623,0.279-0.623,0.623v10.539c0,0.344,0.279,0.623,0.623,0.623h6.229c0.328,0,0.596-0.254,0.621-0.574
		c0.001-0.016,0.002-0.031,0.002-0.049v-6.035c0-1.031,0.838-1.869,1.869-1.869c1.031,0,1.869,0.838,1.869,1.869v6.035
		c0,0.018,0.001,0.033,0.002,0.048c0.025,0.321,0.293,0.575,0.621,0.575h6.229c0.344,0,0.623-0.279,0.623-0.623V12.524
		C25.831,12.181,25.552,11.901,25.208,11.901"/>
</g>
<g display="none">
	<path display="inline" fill="#FFFFFF" d="M11.574,10.577c-1.376,0-2.496,1.086-2.496,2.422c0,1.338,1.12,2.424,2.496,2.424
		c1.378,0,2.499-1.086,2.499-2.424C14.073,11.665,12.952,10.577,11.574,10.577 M11.574,17.261c-2.39,0-4.335-1.91-4.335-4.262
		c0-2.35,1.945-4.26,4.335-4.26c2.391,0,4.337,1.91,4.337,4.26C15.911,15.353,13.965,17.261,11.574,17.261 M10.975,22.512h1.284
		c0.229-0.519,0.601-1.461,0.903-2.271l0.141-0.379l2.035-0.825l0.351,0.151c0.832,0.353,1.813,0.752,2.354,0.944l0.893-0.872
		c-0.213-0.525-0.625-1.439-0.996-2.21l-0.178-0.374l0.852-2.015l0.363-0.142c0.836-0.324,1.808-0.719,2.334-0.957v-1.211
		c-0.529-0.222-1.49-0.586-2.317-0.879l-0.384-0.136l-0.848-2.019l0.161-0.363c0.354-0.801,0.752-1.742,0.954-2.279l-0.893-0.872
		c-0.535,0.206-1.488,0.62-2.294,0.988l-0.359,0.164l-2.033-0.821l-0.146-0.361c-0.328-0.819-0.733-1.771-0.978-2.285h-1.282
		c-0.23,0.517-0.6,1.461-0.902,2.27L9.849,6.136L7.82,6.96L7.469,6.812C6.635,6.456,5.65,6.06,5.108,5.866L4.216,6.739
		C4.43,7.267,4.843,8.178,5.212,8.95l0.177,0.373L4.538,11.34l-0.363,0.14c-0.836,0.322-1.807,0.717-2.334,0.955v1.211
		c0.53,0.227,1.493,0.588,2.32,0.883l0.382,0.136l0.846,2.015l-0.16,0.362c-0.354,0.799-0.752,1.741-0.954,2.278l0.892,0.873
		c0.535-0.207,1.487-0.619,2.291-0.987L7.82,19.04l2.032,0.824l0.146,0.363C10.329,21.045,10.732,21.999,10.975,22.512
		 M12.794,24.351h-2.34c-0.657,0-0.852-0.195-2.016-3.076L7.86,21.04c-2.45,1.107-2.751,1.107-2.933,1.107H4.555L4.26,21.879
		l-1.656-1.622c-0.481-0.477-0.481-0.729,0.782-3.598L3.16,16.123C0.201,15.063,0,14.868,0,14.192v-2.293
		c0-0.668,0.18-0.845,3.148-1.994l0.226-0.537C2.093,6.665,2.029,6.305,2.538,5.81l1.92-1.88l0.403-0.007
		c0.17,0,0.479,0,2.973,1.048l0.575-0.233c1.082-2.891,1.275-3.088,1.947-3.088h2.341c0.663,0,0.841,0.179,2.013,3.076l0.575,0.232
		c2.447-1.105,2.751-1.105,2.936-1.105h0.371l0.295,0.266l1.661,1.619c0.479,0.478,0.479,0.729-0.782,3.6l0.227,0.54
		c2.979,1.067,3.158,1.241,3.158,1.929v2.29c0,0.671-0.18,0.847-3.147,1.996l-0.226,0.539c1.324,2.793,1.328,3.071,0.844,3.554
		l-1.928,1.885l-0.404,0.008c-0.17,0-0.479,0-2.969-1.049l-0.577,0.235C13.659,24.153,13.465,24.351,12.794,24.351"/>
	<path display="inline" fill="#FFFFFF" d="M27.408,12.141c-0.365,0-0.691,0.24-0.811,0.596c-0.151,0.453,0.078,0.938,0.511,1.084
		c0.427,0.144,0.912-0.121,1.058-0.556c0.153-0.45-0.076-0.938-0.508-1.084C27.576,12.154,27.49,12.141,27.408,12.141 M27.36,15.394
		c-0.254,0-0.5-0.04-0.739-0.122c-1.235-0.414-1.897-1.77-1.478-3.023c0.33-0.979,1.239-1.639,2.262-1.639
		c0.253,0,0.499,0.041,0.737,0.119c1.234,0.413,1.896,1.771,1.477,3.023C29.291,14.732,28.383,15.394,27.36,15.394 M25.814,17.486
		l0.146,0.047c0.192-0.227,0.444-0.537,0.658-0.811l0.23-0.296l1.462-0.104l0.267,0.246c0.256,0.234,0.555,0.498,0.78,0.689
		l0.164-0.084c-0.021-0.297-0.058-0.701-0.097-1.049l-0.036-0.361l0.948-1.113l0.361-0.021c0.35-0.021,0.756-0.049,1.051-0.076
		l0.065-0.195c-0.221-0.191-0.522-0.445-0.789-0.66l-0.286-0.232l-0.091-1.452l0.233-0.263c0.24-0.273,0.516-0.592,0.707-0.827
		l-0.078-0.163c-0.325,0.027-0.737,0.072-1.006,0.105l-0.377,0.047l-1.096-0.971l-0.017-0.357C29,9.227,28.977,8.816,28.953,8.515
		l-0.152-0.05c-0.191,0.227-0.444,0.54-0.658,0.811l-0.23,0.297l-1.457,0.106l-0.268-0.247c-0.255-0.234-0.557-0.498-0.779-0.689
		l-0.162,0.082c0.021,0.299,0.055,0.703,0.094,1.053l0.037,0.359l-0.945,1.114l-0.362,0.017c-0.349,0.021-0.759,0.051-1.052,0.078
		l-0.066,0.193c0.221,0.193,0.524,0.445,0.791,0.66l0.289,0.232l0.09,1.459l-0.233,0.264c-0.243,0.271-0.519,0.589-0.712,0.822
		l0.08,0.162c0.326-0.029,0.738-0.074,1.006-0.107l0.377-0.047l1.098,0.972l0.016,0.356C25.766,16.77,25.791,17.183,25.814,17.486
		 M26.31,18.766h-0.127l-1.155-0.387c-0.529-0.18-0.581-0.525-0.643-1.881c-0.35,0.037-0.852,0.089-1.112,0.089
		c-0.489,0-0.711-0.246-0.81-0.453l-0.479-0.991c-0.224-0.5-0.021-0.783,0.867-1.783l-0.002-0.017
		c-1.002-0.813-1.269-1.078-1.097-1.612l0.356-1.064c0.179-0.523,0.552-0.582,1.849-0.658l0.013-0.014
		c-0.138-1.332-0.136-1.68,0.347-1.937l1.161-0.592h0.187c0.271,0,0.377,0,1.416,0.935c0.853-1.074,1.012-1.166,1.377-1.166h0.129
		l1.151,0.387c0.53,0.173,0.584,0.552,0.644,1.881c0.351-0.038,0.854-0.09,1.113-0.09c0.493,0,0.713,0.252,0.81,0.461l0.476,0.984
		c0.247,0.477,0.04,0.762-0.863,1.785l0.002,0.016c0.983,0.801,1.275,1.092,1.088,1.631l-0.352,1.049
		c-0.158,0.521-0.533,0.58-1.847,0.658l-0.011,0.013c0.135,1.304,0.136,1.687-0.362,1.94l-1.146,0.588H29.1
		c-0.268,0-0.38,0-1.417-0.936C26.858,18.641,26.689,18.766,26.31,18.766"/>
</g>
<g>
	<path fill="#FFFFFF" d="M21.794,14.754l0.95,5.541c0.031,0.186-0.082,0.291-0.133,0.328c-0.051,0.035-0.188,0.113-0.354,0.025
		l-4.977-2.617c-0.245-0.129-0.513-0.191-0.781-0.191s-0.536,0.063-0.78,0.191l-4.977,2.617c-0.167,0.088-0.303,0.01-0.353-0.025
		c-0.051-0.037-0.166-0.143-0.134-0.328l0.951-5.541c0.093-0.545-0.087-1.1-0.483-1.486L6.698,9.344
		C6.563,9.213,6.594,9.059,6.613,9c0.019-0.061,0.085-0.201,0.271-0.229l5.564-0.809c0.546-0.08,1.019-0.422,1.263-0.918
		l2.488-5.042c0.084-0.169,0.239-0.187,0.301-0.187c0.063,0,0.218,0.018,0.301,0.187l2.488,5.042
		c0.245,0.496,0.717,0.838,1.264,0.918l5.564,0.809c0.186,0.027,0.251,0.168,0.27,0.229c0.021,0.059,0.051,0.213-0.084,0.344
		l-4.027,3.924C21.881,13.654,21.7,14.209,21.794,14.754 M27.239,10.305c0.46-0.449,0.622-1.109,0.424-1.719
		c-0.198-0.613-0.718-1.051-1.353-1.143l-5.565-0.809c-0.108-0.016-0.204-0.084-0.253-0.184l-2.488-5.042
		c-0.285-0.577-0.861-0.935-1.504-0.935s-1.219,0.357-1.504,0.935l-2.488,5.042c-0.049,0.1-0.144,0.168-0.253,0.184L6.691,7.443
		C6.054,7.535,5.536,7.973,5.337,8.586c-0.199,0.609-0.036,1.27,0.424,1.719l4.027,3.924c0.079,0.078,0.115,0.189,0.096,0.297
		l-0.95,5.543c-0.109,0.633,0.147,1.262,0.667,1.641c0.52,0.377,1.197,0.426,1.766,0.127l4.977-2.617
		c0.098-0.051,0.214-0.051,0.312,0l4.977,2.617c0.248,0.131,0.516,0.193,0.782,0.193c0.347,0,0.69-0.107,0.983-0.32
		c0.521-0.379,0.776-1.008,0.668-1.641l-0.95-5.543c-0.019-0.107,0.017-0.219,0.096-0.297L27.239,10.305z"/>
	<path fill="#FFFFFF" d="M24.337,1.408c-0.3-0.217-0.719-0.15-0.937,0.148l-0.713,0.98c-0.217,0.3-0.15,0.72,0.148,0.938
		c0.119,0.086,0.258,0.129,0.395,0.129c0.207,0,0.412-0.097,0.543-0.277l0.712-0.98C24.703,2.046,24.637,1.627,24.337,1.408"/>
	<path fill="#FFFFFF" d="M10.309,2.533l-0.712-0.98C9.379,1.254,8.96,1.188,8.66,1.405c-0.3,0.218-0.366,0.638-0.149,0.937
		l0.713,0.98c0.131,0.18,0.335,0.275,0.543,0.275c0.137,0,0.275-0.04,0.394-0.127C10.46,3.252,10.527,2.834,10.309,2.533"/>
	<path fill="#FFFFFF" d="M6.246,15.525c-0.114-0.352-0.493-0.545-0.845-0.432l-1.153,0.375c-0.352,0.115-0.545,0.494-0.43,0.846
		c0.092,0.283,0.355,0.463,0.638,0.463c0.068,0,0.138-0.01,0.207-0.031l1.152-0.375C6.168,16.256,6.36,15.877,6.246,15.525"/>
	<path fill="#FFFFFF" d="M16.5,22.973c-0.37,0-0.671,0.301-0.671,0.672v1.211c0,0.371,0.301,0.672,0.671,0.672
		c0.37,0,0.671-0.301,0.671-0.672v-1.211C17.171,23.273,16.872,22.973,16.5,22.973"/>
	<path fill="#FFFFFF" d="M28.752,15.471L27.6,15.096c-0.352-0.115-0.73,0.078-0.846,0.43c-0.114,0.354,0.079,0.732,0.432,0.846
		l1.151,0.375c0.069,0.021,0.14,0.033,0.208,0.033c0.283,0,0.546-0.18,0.638-0.465C29.297,15.963,29.104,15.584,28.752,15.471"/>
</g>
</svg>
