<?xml version="1.0" encoding="utf-8"?>
<!-- Generator: Adobe Illustrator 16.0.0, SVG Export Plug-In . SVG Version: 6.00 Build 0)  -->
<!DOCTYPE svg PUBLIC "-//W3C//DTD SVG 1.1//EN" "http://www.w3.org/Graphics/SVG/1.1/DTD/svg11.dtd">
<svg version="1.1" id="Layer_1" xmlns="http://www.w3.org/2000/svg" xmlns:xlink="http://www.w3.org/1999/xlink" x="0px" y="0px"
	 width="33px" height="26px" viewBox="0 0 33 26" enable-background="new 0 0 33 26" xml:space="preserve">
<rect display="none" fill="#3A4DA1" width="33" height="26"/>
<g display="none">
	<path display="inline" fill="#FFFFFF" d="M28.221,10.756L16.856,2.435c-0.22-0.16-0.517-0.16-0.736,0L4.755,10.756
		c-0.277,0.203-0.338,0.593-0.134,0.871c0.203,0.276,0.593,0.337,0.87,0.134L16.488,3.71l10.997,8.051
		c0.111,0.081,0.24,0.121,0.367,0.121c0.19,0,0.383-0.089,0.504-0.255C28.559,11.349,28.497,10.959,28.221,10.756"/>
	<path display="inline" fill="none" stroke="#FFFFFF" stroke-width="0.5" stroke-miterlimit="10" d="M28.221,10.756L16.856,2.435
		c-0.22-0.16-0.517-0.16-0.736,0L4.755,10.756c-0.277,0.203-0.338,0.593-0.134,0.871c0.203,0.276,0.593,0.337,0.87,0.134
		L16.488,3.71l10.997,8.051c0.111,0.081,0.24,0.121,0.367,0.121c0.19,0,0.383-0.089,0.504-0.255
		C28.559,11.349,28.497,10.959,28.221,10.756z"/>
	<path display="inline" fill="#FFFFFF" d="M25.208,11.901c-0.345,0-0.623,0.279-0.623,0.623v9.916h-4.981v-5.412
		c0-1.719-1.398-3.114-3.116-3.114c-1.717,0-3.115,1.396-3.115,3.114v5.412H8.39v-9.916c0-0.344-0.279-0.623-0.623-0.623
		c-0.344,0-0.623,0.279-0.623,0.623v10.539c0,0.345,0.279,0.623,0.623,0.623h6.229c0.328,0,0.596-0.254,0.621-0.574
		c0.001-0.016,0.002-0.03,0.002-0.049v-6.035c0-1.03,0.838-1.868,1.869-1.868c1.032,0,1.87,0.838,1.87,1.868v6.035
		c0,0.019,0,0.033,0.002,0.049c0.024,0.32,0.293,0.574,0.621,0.574h6.229c0.344,0,0.623-0.278,0.623-0.623V12.524
		C25.831,12.181,25.552,11.901,25.208,11.901"/>
</g>
<g display="none">
	<path display="inline" fill="#FFFFFF" d="M11.574,10.577c-1.376,0-2.496,1.086-2.496,2.422c0,1.338,1.12,2.424,2.496,2.424
		c1.378,0,2.499-1.086,2.499-2.424C14.073,11.665,12.952,10.577,11.574,10.577 M11.574,17.261c-2.39,0-4.335-1.909-4.335-4.262
		c0-2.35,1.945-4.26,4.335-4.26c2.391,0,4.337,1.91,4.337,4.26C15.911,15.354,13.965,17.261,11.574,17.261 M10.975,22.512h1.284
		c0.229-0.519,0.601-1.461,0.903-2.271l0.141-0.38l2.035-0.824l0.351,0.15c0.832,0.354,1.813,0.752,2.354,0.944l0.893-0.872
		c-0.213-0.525-0.625-1.439-0.996-2.21l-0.178-0.374l0.852-2.015l0.363-0.142c0.836-0.324,1.809-0.72,2.334-0.957v-1.211
		c-0.528-0.222-1.49-0.586-2.316-0.879l-0.385-0.136l-0.848-2.019l0.161-0.363c0.354-0.801,0.752-1.742,0.954-2.279l-0.893-0.872
		c-0.535,0.206-1.488,0.62-2.294,0.988l-0.359,0.164l-2.033-0.821l-0.146-0.361c-0.328-0.819-0.733-1.771-0.978-2.285h-1.282
		c-0.23,0.517-0.6,1.461-0.902,2.27L9.849,6.136L7.82,6.96L7.469,6.812C6.635,6.456,5.65,6.06,5.108,5.866L4.216,6.739
		C4.43,7.267,4.843,8.178,5.212,8.95l0.177,0.373L4.538,11.34l-0.363,0.14c-0.836,0.322-1.807,0.717-2.334,0.955v1.211
		c0.53,0.227,1.493,0.588,2.32,0.883l0.382,0.136l0.846,2.015l-0.16,0.362c-0.354,0.799-0.752,1.741-0.954,2.278l0.892,0.873
		c0.535-0.207,1.487-0.619,2.291-0.987L7.82,19.04l2.032,0.824l0.146,0.362C10.329,21.045,10.732,21.999,10.975,22.512
		 M12.794,24.352h-2.34c-0.657,0-0.852-0.195-2.016-3.076L7.86,21.04c-2.45,1.106-2.751,1.106-2.933,1.106H4.555L4.26,21.879
		l-1.656-1.622c-0.481-0.478-0.481-0.729,0.782-3.598L3.16,16.123C0.201,15.063,0,14.868,0,14.191v-2.292
		c0-0.668,0.18-0.845,3.148-1.994l0.226-0.537C2.093,6.665,2.029,6.305,2.538,5.81l1.92-1.88l0.403-0.007
		c0.17,0,0.479,0,2.973,1.048l0.575-0.233C9.491,1.847,9.684,1.65,10.356,1.65h2.341c0.663,0,0.841,0.179,2.013,3.076l0.575,0.232
		c2.447-1.105,2.751-1.105,2.936-1.105h0.371l0.295,0.266l1.661,1.619c0.479,0.478,0.479,0.729-0.782,3.6l0.228,0.54
		c2.979,1.067,3.157,1.241,3.157,1.929v2.291c0,0.67-0.18,0.846-3.146,1.995l-0.227,0.539c1.324,2.793,1.328,3.071,0.845,3.554
		l-1.929,1.885l-0.403,0.009c-0.17,0-0.479,0-2.969-1.05l-0.577,0.236C13.659,24.152,13.465,24.352,12.794,24.352"/>
	<path display="inline" fill="#FFFFFF" d="M27.408,12.141c-0.365,0-0.691,0.24-0.811,0.596c-0.152,0.453,0.077,0.938,0.51,1.083
		c0.428,0.145,0.912-0.12,1.059-0.555c0.152-0.45-0.076-0.938-0.508-1.084C27.576,12.154,27.49,12.141,27.408,12.141 M27.359,15.395
		c-0.254,0-0.5-0.041-0.738-0.123c-1.234-0.414-1.896-1.77-1.479-3.022c0.33-0.979,1.239-1.639,2.262-1.639
		c0.254,0,0.5,0.041,0.738,0.119c1.233,0.413,1.896,1.771,1.477,3.023C29.291,14.732,28.383,15.395,27.359,15.395 M25.814,17.486
		l0.146,0.047c0.192-0.227,0.444-0.537,0.658-0.811l0.229-0.297l1.463-0.104l0.267,0.246c0.256,0.233,0.555,0.498,0.78,0.688
		l0.164-0.084c-0.021-0.297-0.059-0.7-0.098-1.049l-0.035-0.36l0.947-1.113l0.361-0.021c0.35-0.021,0.756-0.049,1.051-0.076
		l0.064-0.195c-0.221-0.19-0.521-0.444-0.789-0.659l-0.285-0.232l-0.092-1.452l0.233-0.263c0.24-0.273,0.517-0.592,0.707-0.827
		l-0.078-0.163c-0.325,0.027-0.737,0.072-1.006,0.105l-0.377,0.047l-1.097-0.971l-0.016-0.357C29,9.227,28.977,8.816,28.953,8.515
		l-0.152-0.05c-0.191,0.227-0.443,0.54-0.658,0.811l-0.229,0.297l-1.457,0.106l-0.269-0.247c-0.254-0.234-0.557-0.498-0.778-0.689
		l-0.162,0.082c0.021,0.299,0.055,0.703,0.094,1.053l0.037,0.359l-0.944,1.114l-0.363,0.017c-0.348,0.021-0.758,0.051-1.051,0.078
		l-0.066,0.193c0.221,0.193,0.523,0.445,0.791,0.66l0.289,0.232l0.09,1.459l-0.232,0.264c-0.244,0.271-0.52,0.589-0.713,0.822
		l0.08,0.162c0.326-0.029,0.738-0.074,1.006-0.107l0.377-0.047l1.098,0.973l0.017,0.355C25.766,16.77,25.791,17.184,25.814,17.486
		 M26.311,18.766h-0.127l-1.156-0.387c-0.528-0.18-0.58-0.525-0.643-1.881c-0.35,0.037-0.852,0.089-1.111,0.089
		c-0.489,0-0.711-0.246-0.811-0.453l-0.479-0.991c-0.225-0.5-0.021-0.783,0.867-1.783l-0.002-0.017
		c-1.002-0.813-1.27-1.078-1.098-1.612l0.355-1.064c0.18-0.523,0.553-0.582,1.85-0.658l0.014-0.014
		c-0.139-1.332-0.137-1.68,0.346-1.937l1.162-0.592h0.187c0.271,0,0.377,0,1.416,0.935c0.853-1.074,1.012-1.166,1.377-1.166h0.129
		l1.151,0.387c0.529,0.173,0.584,0.552,0.644,1.881c0.351-0.038,0.854-0.09,1.113-0.09c0.493,0,0.713,0.252,0.81,0.461l0.477,0.984
		c0.246,0.477,0.039,0.762-0.863,1.785l0.002,0.016c0.982,0.801,1.275,1.092,1.088,1.631l-0.352,1.049
		c-0.158,0.521-0.533,0.58-1.848,0.658l-0.011,0.013c0.136,1.305,0.136,1.688-0.362,1.94l-1.146,0.588H29.1
		c-0.268,0-0.379,0-1.416-0.937C26.857,18.641,26.689,18.766,26.311,18.766"/>
</g>
<g display="none">
	<path display="inline" fill="#FFFFFF" d="M21.794,14.754l0.95,5.541c0.031,0.186-0.082,0.291-0.133,0.328
		c-0.051,0.035-0.188,0.113-0.354,0.025l-4.978-2.617c-0.244-0.129-0.512-0.191-0.78-0.191s-0.536,0.063-0.78,0.191l-4.977,2.617
		c-0.167,0.088-0.303,0.01-0.353-0.025c-0.051-0.037-0.166-0.143-0.134-0.328l0.951-5.541c0.093-0.545-0.087-1.1-0.483-1.486
		L6.698,9.344C6.563,9.213,6.594,9.059,6.613,9c0.019-0.061,0.085-0.201,0.271-0.229l5.564-0.809
		c0.546-0.08,1.019-0.422,1.263-0.918l2.488-5.042c0.084-0.169,0.239-0.187,0.301-0.187c0.063,0,0.218,0.018,0.301,0.187
		l2.488,5.042c0.245,0.496,0.717,0.838,1.264,0.918l5.564,0.809c0.186,0.027,0.251,0.168,0.27,0.229
		c0.021,0.059,0.051,0.213-0.084,0.344l-4.027,3.924C21.881,13.654,21.7,14.209,21.794,14.754 M27.238,10.305
		c0.461-0.449,0.623-1.109,0.425-1.719c-0.198-0.613-0.718-1.051-1.353-1.143l-5.565-0.809c-0.108-0.016-0.204-0.084-0.253-0.184
		l-2.488-5.042c-0.285-0.577-0.861-0.935-1.504-0.935c-0.643,0-1.219,0.357-1.504,0.935L12.508,6.45
		c-0.049,0.1-0.144,0.168-0.253,0.184L6.691,7.443c-0.637,0.092-1.155,0.53-1.354,1.143c-0.199,0.609-0.036,1.27,0.424,1.719
		l4.027,3.923c0.079,0.078,0.115,0.189,0.096,0.297l-0.95,5.543c-0.109,0.634,0.147,1.263,0.667,1.642
		c0.52,0.377,1.197,0.426,1.766,0.127l4.977-2.616c0.098-0.052,0.214-0.052,0.312,0l4.977,2.616
		c0.248,0.131,0.516,0.192,0.782,0.192c0.347,0,0.69-0.106,0.983-0.319c0.521-0.379,0.775-1.008,0.668-1.642l-0.95-5.543
		c-0.019-0.106,0.017-0.219,0.096-0.297L27.238,10.305z"/>
	<path display="inline" fill="#FFFFFF" d="M24.337,1.408c-0.3-0.217-0.719-0.15-0.937,0.148l-0.713,0.98
		c-0.217,0.3-0.15,0.72,0.147,0.938c0.119,0.086,0.258,0.129,0.396,0.129c0.207,0,0.412-0.097,0.543-0.277l0.711-0.98
		C24.703,2.046,24.637,1.627,24.337,1.408"/>
	<path display="inline" fill="#FFFFFF" d="M10.309,2.533l-0.712-0.98C9.379,1.254,8.96,1.188,8.66,1.405
		c-0.3,0.218-0.366,0.638-0.149,0.937l0.713,0.98c0.131,0.18,0.335,0.275,0.543,0.275c0.137,0,0.275-0.04,0.394-0.127
		C10.46,3.252,10.527,2.834,10.309,2.533"/>
	<path display="inline" fill="#FFFFFF" d="M6.246,15.525c-0.114-0.353-0.493-0.545-0.845-0.433l-1.153,0.375
		c-0.352,0.115-0.545,0.494-0.43,0.847c0.092,0.283,0.355,0.463,0.638,0.463c0.068,0,0.138-0.01,0.207-0.031l1.152-0.375
		C6.168,16.256,6.36,15.877,6.246,15.525"/>
	<path display="inline" fill="#FFFFFF" d="M16.5,22.973c-0.37,0-0.671,0.301-0.671,0.672v1.211c0,0.371,0.301,0.672,0.671,0.672
		s0.671-0.301,0.671-0.672v-1.211C17.171,23.273,16.872,22.973,16.5,22.973"/>
	<path display="inline" fill="#FFFFFF" d="M28.752,15.471L27.6,15.096c-0.352-0.115-0.729,0.078-0.846,0.43
		c-0.113,0.354,0.079,0.732,0.432,0.847l1.151,0.375c0.069,0.021,0.14,0.032,0.208,0.032c0.283,0,0.546-0.18,0.639-0.465
		C29.297,15.963,29.104,15.584,28.752,15.471"/>
</g>
<path display="none" fill="#FFFFFF" d="M26.088,13.008v-1.836c0.455-0.158,0.844-0.334,1.148-0.527v1.586
	C27.236,12.447,26.834,12.729,26.088,13.008 M26.082,18.016c-0.041,0.26-0.631,0.604-1.678,0.928
	c-1.357,0.421-3.48,0.804-6.172,0.923c-0.137,0.006-0.273,0.012-0.414,0.016c-0.115,0.004-0.23,0.009-0.348,0.011
	c-0.316,0.008-0.639,0.014-0.972,0.014c-0.332,0-0.654-0.006-0.972-0.014c-0.116-0.002-0.229-0.007-0.343-0.011
	c-0.142-0.004-0.28-0.01-0.418-0.016c-2.691-0.119-4.814-0.502-6.171-0.923c-1.014-0.313-1.6-0.646-1.674-0.901
	c0.115,0.039,0.233,0.078,0.355,0.115c0.012,0.004,0.024,0.008,0.036,0.012c0.104,0.031,0.21,0.063,0.318,0.092
	c0.041,0.013,0.083,0.023,0.125,0.035c0.061,0.017,0.124,0.031,0.187,0.047c1.396,0.359,3.179,0.611,5.104,0.728
	c0.001,0,0.001,0,0.002,0h0.001c0.595,0.035,1.202,0.057,1.815,0.063c0.164,0.002,0.326,0.005,0.485,0.005
	c0.211,0,0.428-0.003,0.647-0.007c0.559-0.01,1.111-0.03,1.65-0.063c0.002,0,0.002,0,0.004,0s0.002,0,0.004,0
	c0.658-0.039,1.296-0.098,1.906-0.166c0.004,0,0.004,0,0.008,0c0.008,0,0.016-0.004,0.022-0.006
	c0.683-0.076,1.326-0.174,1.927-0.285c0.123-0.022,0.246-0.047,0.364-0.069c0.027-0.006,0.056-0.013,0.082-0.019
	c1.132-0.231,2.111-0.532,2.785-0.905c0.037-0.021,0.069-0.041,0.104-0.062c0.043-0.024,0.084-0.051,0.123-0.078
	c0.037-0.022,0.08-0.047,0.113-0.069C25.85,17.678,26.059,17.92,26.082,18.016 M24.938,21.445v-1.836
	c0.455-0.158,0.844-0.336,1.15-0.527v1.586C26.086,20.885,25.684,21.166,24.938,21.445 M6.913,20.67v-1.588
	c0.306,0.191,0.695,0.369,1.151,0.527v1.836C7.317,21.166,6.914,20.885,6.913,20.67 M5.762,16.451v-1.588
	c0.306,0.191,0.694,0.367,1.15,0.527v1.827l-0.219-0.084l-0.005,0.005C6.086,16.889,5.762,16.645,5.762,16.451 M7.62,12.938
	c0.006,0.006,0.015,0.012,0.021,0.018c0.525,0.531,1.612,0.946,2.965,1.258c0.031,0.007,0.064,0.015,0.096,0.021
	c0.099,0.021,0.2,0.043,0.302,0.064c1.243,0.264,2.726,0.457,4.343,0.551c0.001,0,0.002,0,0.003,0h0.001
	c0.519,0.031,1.05,0.053,1.593,0.062c0.24,0.006,0.476,0.008,0.707,0.008c0.267,0,0.537-0.002,0.813-0.01
	c0.502-0.011,0.996-0.031,1.481-0.06c0.003,0,0.005,0,0.007,0c0.004,0,0.006-0.002,0.01-0.002c1.621-0.094,3.142-0.289,4.427-0.565
	c-0.277,0.146-0.658,0.297-1.134,0.442c-1.433,0.443-3.721,0.846-6.627,0.939c-0.086,0.002-0.171,0.006-0.259,0.008
	c-0.094,0.002-0.189,0.004-0.285,0.006c-0.241,0.004-0.484,0.008-0.733,0.008c-0.332,0-0.654-0.006-0.972-0.012
	c-0.116-0.004-0.231-0.008-0.347-0.012c-0.14-0.004-0.278-0.01-0.415-0.016c-2.69-0.119-4.814-0.504-6.17-0.922
	c-1.055-0.326-1.645-0.673-1.679-0.935C5.809,13.646,6.196,13.287,7.62,12.938 M5.762,7.631V6.043
	c0.306,0.193,0.694,0.369,1.15,0.527v1.836C6.167,8.127,5.762,7.846,5.762,7.631 M15.35,3.414c6.322,0,9.521,0.996,9.582,1.566
	c-0.047,0.26-0.637,0.602-1.678,0.924c-1.357,0.42-3.48,0.803-6.17,0.922c-0.138,0.006-0.275,0.012-0.416,0.016
	c-0.114,0.004-0.229,0.008-0.346,0.01c-0.318,0.01-0.64,0.014-0.972,0.014s-0.654-0.004-0.972-0.014
	c-0.116-0.002-0.231-0.006-0.347-0.01c-0.14-0.004-0.278-0.01-0.415-0.016c-2.69-0.119-4.814-0.502-6.17-0.922
	C6.402,5.582,5.814,5.24,5.768,4.98C5.828,4.41,9.025,3.414,15.35,3.414 M27.232,9.574c-0.034,0.26-0.625,0.607-1.678,0.932
	c-1.357,0.42-3.48,0.803-6.171,0.922c-0.139,0.006-0.274,0.012-0.416,0.018c-0.114,0.004-0.229,0.008-0.346,0.01
	c-0.317,0.006-0.642,0.012-0.974,0.012s-0.653-0.006-0.972-0.012c-0.116-0.002-0.231-0.006-0.347-0.01
	c-0.14-0.006-0.278-0.012-0.415-0.018c-2.69-0.119-4.814-0.502-6.17-0.922C8.701,10.184,8.112,9.84,8.068,9.58
	C8.07,9.574,8.07,9.568,8.074,9.557C8.102,9.564,8.13,9.57,8.156,9.576c0.15,0.035,0.304,0.07,0.46,0.104
	c0.762,0.164,1.607,0.299,2.506,0.402c0.004,0,0.006,0,0.009,0h0.001c0.613,0.07,1.249,0.125,1.902,0.164
	c0.005,0,0.009,0.002,0.014,0.002c0.003,0,0.005-0.002,0.007-0.002c0.47,0.027,0.946,0.049,1.428,0.059
	c0.295,0.008,0.584,0.012,0.866,0.012c0.201,0,0.408-0.002,0.616-0.006c2.787-0.043,5.369-0.375,7.166-0.889
	c0.084-0.023,0.164-0.047,0.244-0.072c0.049-0.014,0.1-0.027,0.146-0.043c0.139-0.045,0.271-0.09,0.398-0.139
	c0.023-0.008,0.045-0.016,0.066-0.025c0.109-0.041,0.213-0.084,0.313-0.127c0.029-0.012,0.059-0.023,0.086-0.037
	c0.106-0.049,0.209-0.098,0.305-0.148c0.043-0.021,0.08-0.045,0.121-0.068c0.045-0.025,0.092-0.053,0.135-0.08
	c0.023-0.016,0.054-0.029,0.076-0.045C26.736,9.008,27.189,9.416,27.232,9.574 M25.152,13.307c-0.189,0.053-0.394,0.104-0.601,0.152
	c-0.094,0.021-0.192,0.043-0.29,0.064c-0.031,0.008-0.063,0.014-0.093,0.02v-1.871c0.408-0.08,0.793-0.168,1.149-0.266v1.854
	C25.266,13.273,25.209,13.291,25.152,13.307 M20.771,14.025c-0.145,0.012-0.291,0.02-0.438,0.029v-1.909
	c0.391-0.025,0.773-0.057,1.15-0.094v1.902c-0.223,0.022-0.443,0.047-0.674,0.065C20.797,14.021,20.784,14.023,20.771,14.025
	 M23.367,13.697c-0.169,0.029-0.34,0.059-0.514,0.086c-0.101,0.014-0.203,0.029-0.306,0.043c-0.096,0.014-0.196,0.025-0.297,0.039
	V11.97c0.396-0.049,0.778-0.102,1.151-0.162v1.883C23.391,13.693,23.379,13.695,23.367,13.697 M18.412,12.227
	c0.385-0.008,0.771-0.02,1.154-0.037v1.912c-0.504,0.025-1.017,0.039-1.533,0.045v-1.914c0.105-0.002,0.211-0.004,0.316-0.006
	C18.371,12.227,18.391,12.227,18.412,12.227 M9.213,11.172v1.822c-0.603-0.232-0.992-0.471-1.118-0.684l-0.026-0.043
	c-0.002-0.012-0.006-0.023-0.006-0.035v-1.588C8.37,10.838,8.757,11.014,9.213,11.172 M11.131,11.672v1.869
	c-0.424-0.092-0.809-0.189-1.151-0.289v-1.846C10.338,11.504,10.724,11.592,11.131,11.672 M12.337,13.764
	c-0.152-0.022-0.295-0.049-0.44-0.074v-1.88c0.372,0.061,0.756,0.113,1.151,0.162v1.896c-0.235-0.031-0.464-0.064-0.685-0.098
	C12.354,13.768,12.345,13.766,12.337,13.764 M14.871,14.051c-0.051-0.004-0.104-0.008-0.155-0.012
	C14.47,14.02,14.23,14,13.997,13.977c-0.05-0.006-0.101-0.012-0.15-0.016c-0.011-0.002-0.021-0.002-0.031-0.004v-1.904
	c0.377,0.037,0.762,0.068,1.15,0.094v1.91C14.935,14.055,14.901,14.053,14.871,14.051 M10.748,7.369v1.895
	c-0.076-0.01-0.155-0.02-0.23-0.029c-0.049-0.008-0.096-0.014-0.144-0.021c-0.222-0.031-0.439-0.066-0.651-0.102
	C9.679,9.104,9.638,9.096,9.597,9.09V7.207C9.968,7.266,10.353,7.322,10.748,7.369 M11.514,9.354V7.451
	c0.377,0.037,0.762,0.066,1.15,0.094v1.908C12.274,9.426,11.889,9.393,11.514,9.354 M19.186,7.451v1.902
	c-0.371,0.039-0.756,0.072-1.151,0.102v-1.91C18.422,7.518,18.809,7.488,19.186,7.451 M21.868,8.938V7.07
	c0.407-0.08,0.794-0.168,1.151-0.266v1.85C22.676,8.754,22.289,8.848,21.868,8.938 M19.951,9.262V7.369
	c0.395-0.049,0.779-0.104,1.15-0.162v1.879C20.738,9.15,20.355,9.209,19.951,9.262 M24.85,7.816l-0.012-0.002l-0.14,0.109
	c-0.202,0.156-0.513,0.316-0.911,0.471V6.57c0.455-0.158,0.844-0.334,1.148-0.527v1.586C24.938,7.688,24.906,7.75,24.85,7.816
	 M16.11,7.625c0.386-0.008,0.772-0.02,1.156-0.037V9.5c-0.064,0.004-0.127,0.008-0.192,0.012c-0.005,0-0.011,0-0.017,0
	c-0.258,0.012-0.52,0.021-0.786,0.027c-0.041,0-0.083,0-0.124,0.002c-0.137,0.002-0.276,0.004-0.415,0.004V7.631
	c0.106-0.002,0.211-0.004,0.317-0.006C16.069,7.625,16.089,7.625,16.11,7.625 M14.649,7.625c0.106,0.002,0.211,0.004,0.316,0.006
	v1.914c-0.516-0.006-1.029-0.018-1.534-0.043V7.588c0.385,0.018,0.771,0.029,1.157,0.037C14.608,7.625,14.629,7.625,14.649,7.625
	 M7.679,8.658V6.805C8.038,6.902,8.422,6.99,8.831,7.07v1.871c-0.048-0.01-0.096-0.02-0.142-0.029
	C8.484,8.867,8.285,8.82,8.094,8.77C7.949,8.734,7.813,8.695,7.679,8.658 M16.625,14.139c-0.288-0.008-0.57-0.02-0.847-0.033
	c-0.015,0-0.03-0.002-0.045-0.002V12.19c0.385,0.018,0.771,0.029,1.157,0.037c0.02,0,0.041,0,0.061,0
	c0.105,0.002,0.211,0.004,0.316,0.006v1.914c-0.188-0.002-0.375-0.002-0.558-0.008C16.682,14.139,16.652,14.139,16.625,14.139
	 M21.868,15.889c0.407-0.08,0.794-0.168,1.151-0.264v1.852c-0.343,0.101-0.728,0.195-1.151,0.285V15.889z M19.951,18.086v-1.898
	c0.395-0.047,0.779-0.102,1.15-0.16v1.884C20.74,17.973,20.355,18.033,19.951,18.086 M18.289,18.258
	c-0.084,0.006-0.17,0.012-0.256,0.02v-1.911c0.389-0.027,0.773-0.058,1.15-0.095v1.904c-0.236,0.025-0.479,0.049-0.728,0.068
	C18.4,18.25,18.344,18.254,18.289,18.258 M10.748,16.188v1.898c-0.405-0.055-0.789-0.113-1.15-0.176v-1.883
	C9.968,16.086,10.353,16.141,10.748,16.188 M11.713,18.197c-0.039-0.004-0.078-0.01-0.117-0.014
	c-0.027-0.002-0.054-0.007-0.082-0.009v-1.903c0.377,0.037,0.762,0.067,1.15,0.094v1.91C12.342,18.252,12.024,18.227,11.713,18.197
	 M12.665,20.49c0.378,0.037,0.762,0.066,1.151,0.092v1.914c-0.398-0.029-0.782-0.063-1.151-0.102V20.49z M10.748,20.246
	c0.371,0.059,0.755,0.113,1.15,0.162v1.896c-0.405-0.056-0.789-0.111-1.15-0.177V20.246z M9.98,20.109v1.871
	c-0.424-0.092-0.809-0.187-1.15-0.285v-1.853C9.188,19.939,9.573,20.029,9.98,20.109 M23.02,20.109
	c0.406-0.08,0.793-0.17,1.15-0.267v1.853c-0.342,0.1-0.727,0.193-1.15,0.285V20.109z M21.102,20.406
	c0.396-0.047,0.779-0.102,1.15-0.16v1.883c-0.359,0.063-0.744,0.121-1.15,0.174V20.406z M20.334,20.49v1.904
	c-0.367,0.037-0.752,0.071-1.148,0.102v-1.914C19.573,20.557,19.957,20.527,20.334,20.49 M17.26,20.664
	c0.387-0.008,0.773-0.021,1.158-0.037v1.914c-0.494,0.023-1.004,0.039-1.535,0.045v-1.918c0.105,0,0.211-0.002,0.316-0.004
	C17.221,20.664,17.24,20.664,17.26,20.664 M15.8,20.664c0.105,0.002,0.21,0.004,0.316,0.004v1.918
	c-0.53-0.006-1.042-0.021-1.534-0.045v-1.914c0.384,0.018,0.77,0.029,1.157,0.037C15.759,20.664,15.779,20.664,15.8,20.664
	 M7.716,17.488c-0.012-0.004-0.024-0.008-0.037-0.012v-1.853c0.358,0.097,0.743,0.187,1.151,0.267v1.87
	c-0.353-0.073-0.677-0.151-0.973-0.231C7.811,17.514,7.762,17.502,7.716,17.488 M14.644,18.363
	c-0.176-0.004-0.351-0.008-0.524-0.014c-0.022,0-0.043-0.002-0.065-0.002c-0.209-0.007-0.416-0.017-0.622-0.025v-1.914
	c0.384,0.018,0.77,0.029,1.156,0.037c0.021,0,0.041,0,0.061,0c0.106,0.002,0.211,0.004,0.316,0.006v1.916
	c-0.074,0-0.148,0-0.222-0.002C14.709,18.365,14.676,18.363,14.644,18.363 M16.318,18.357c-0.056,0.002-0.113,0.002-0.169,0.004
	c-0.137,0.002-0.277,0.004-0.416,0.004v-1.914c0.105-0.002,0.211-0.004,0.316-0.006c0.021,0,0.041,0,0.061,0
	c0.386-0.008,0.773-0.021,1.158-0.037v1.914c-0.082,0.004-0.166,0.008-0.248,0.012C16.789,18.344,16.555,18.352,16.318,18.357
	 M24.896,16.576l-0.133,0.113c-0.199,0.178-0.535,0.356-0.977,0.528v-1.827c0.455-0.158,0.844-0.334,1.148-0.527v1.588
	C24.938,16.49,24.922,16.531,24.896,16.576 M28,9.549c-0.037-0.656-0.816-1.168-2.379-1.559c0.053-0.115,0.082-0.236,0.082-0.359
	V4.947h-0.006c-0.137-2.234-9.296-2.301-10.347-2.301c-1.052,0-10.211,0.066-10.348,2.301H4.996v0.051v2.633
	c0.002,0.73,0.942,1.299,2.341,1.725c-0.02,0.062-0.032,0.128-0.036,0.193H7.296V9.6v2.629c-1.508,0.389-2.26,0.895-2.298,1.539
	H4.996v0.051v2.634c0.001,0.508,0.458,0.938,1.207,1.297c-0.029,0.078-0.046,0.158-0.051,0.237H6.146v0.052v2.633
	c0.003,1.277,2.875,2.068,6.066,2.438c0.024,0.006,0.045,0.016,0.07,0.016c0.007,0,0.013-0.004,0.021-0.006
	c0.615,0.07,1.24,0.125,1.858,0.164c0.014,0,0.025,0.006,0.038,0.006c0.008,0,0.013-0.004,0.02-0.004
	c0.786,0.049,1.559,0.072,2.281,0.072c0.723,0,1.497-0.023,2.281-0.072c0.007,0,0.013,0.004,0.021,0.004
	c0.015,0,0.024-0.006,0.037-0.008c0.619-0.039,1.244-0.092,1.859-0.162c0.008,0,0.014,0.004,0.021,0.004
	c0.024,0,0.045-0.01,0.07-0.014c3.189-0.369,6.063-1.162,6.064-2.438v-2.685h-0.006c-0.027-0.471-0.429-0.862-1.22-1.19
	c0.049-0.108,0.074-0.226,0.074-0.344v-2.507c1.377-0.426,2.299-0.989,2.301-1.712V9.549H28z"/>
<g display="none">
	<path display="inline" fill="#FFFFFF" d="M22.283,11.501c-0.119-0.301-0.461-0.449-0.762-0.33c-0.303,0.119-0.449,0.459-0.33,0.762
		c0.299,0.754,0.449,1.551,0.449,2.369c0,3.554-2.892,6.443-6.445,6.443c-3.554,0-6.445-2.892-6.445-6.443s2.891-6.443,6.445-6.443
		c0.821,0,1.619,0.15,2.375,0.451c0.301,0.119,0.643-0.027,0.762-0.328c0.119-0.301-0.027-0.643-0.328-0.764
		c-0.893-0.354-1.837-0.535-2.807-0.535c-4.201,0-7.618,3.418-7.618,7.619c0,4.199,3.417,7.617,7.618,7.617
		c4.2,0,7.618-3.418,7.618-7.617C22.814,13.335,22.637,12.392,22.283,11.501"/>
	<path display="inline" fill="#FFFFFF" d="M25.9,11.233c-0.09-0.313-0.414-0.492-0.727-0.404c-0.313,0.09-0.49,0.414-0.4,0.727
		c0.254,0.889,0.383,1.813,0.383,2.746c0,5.492-4.469,9.959-9.959,9.959c-5.492,0-9.96-4.467-9.96-9.959
		c0-5.492,4.468-9.961,9.96-9.961c0.935,0,1.86,0.131,2.75,0.385c0.312,0.092,0.637-0.09,0.727-0.4
		c0.09-0.313-0.092-0.637-0.402-0.727c-0.996-0.287-2.029-0.432-3.075-0.432c-6.139,0-11.133,4.996-11.133,11.135
		c0,6.14,4.994,11.134,11.133,11.134c6.139,0,11.133-4.996,11.133-11.134C26.33,13.259,26.186,12.226,25.9,11.233"/>
	<path display="inline" fill="#FFFFFF" d="M19.283,13.941c-0.029-0.321-0.314-0.559-0.639-0.53c-0.32,0.027-0.562,0.313-0.531,0.637
		c0.008,0.084,0.012,0.168,0.012,0.254c0,1.613-1.313,2.929-2.928,2.929c-1.615,0-2.929-1.314-2.929-2.929
		c0-1.615,1.314-2.93,2.929-2.93c0.09,0,0.179,0.004,0.263,0.012c0.323,0.029,0.608-0.207,0.638-0.529
		c0.03-0.324-0.208-0.609-0.531-0.639c-0.119-0.012-0.244-0.018-0.37-0.018c-2.262,0-4.102,1.84-4.102,4.104
		c0,2.263,1.84,4.103,4.102,4.103c2.262,0,4.102-1.84,4.102-4.103C19.299,14.184,19.294,14.063,19.283,13.941"/>
	<path display="inline" fill="#FFFFFF" d="M24.344,8.38c-0.109,0.109-0.261,0.172-0.414,0.172h-2.147l3.59-3.592h2.392L24.344,8.38z
		 M20.951,5.575c0-0.158,0.063-0.305,0.173-0.416l3.419-3.418V4.13l-3.592,3.592V5.575z M28.848,4.511
		c-0.183-0.439-0.609-0.725-1.086-0.725h-2.046V1.741c0-0.477-0.284-0.902-0.726-1.084c-0.439-0.184-0.941-0.084-1.277,0.254
		l-3.419,3.418c-0.333,0.332-0.517,0.775-0.517,1.246v3.32l-4.77,4.768c-0.229,0.229-0.229,0.603,0,0.83
		c0.115,0.114,0.265,0.172,0.415,0.172c0.15,0,0.3-0.058,0.415-0.172l4.77-4.768h3.32c0.471,0,0.912-0.184,1.244-0.516l3.419-3.42
		C28.93,5.454,29.029,4.952,28.848,4.511"/>
</g>
<path fill="#231F20" d="M26.99,16.979h-1.688v-2.93h2.941v1.678C28.245,16.418,27.682,16.979,26.99,16.979 M17.756,14.049h2.936
	v2.932h-2.936V14.049z M10.412,14.049h2.73v2.934h-2.169L10.412,14.049z M13.143,6.5v2.936H9.529L8.968,6.502L13.143,6.5z
	 M25.305,10.275h2.934v2.936h-2.934V10.275z M17.756,10.275h2.936v2.936h-2.936V10.275z M16.917,9.436h-2.936V6.502h2.936V9.436z
	 M20.691,9.436h-2.937V6.498h2.937V9.436z M24.465,9.436h-2.936V6.502h2.936V9.436z M9.689,10.275h3.453v2.936h-2.891L9.689,10.275z
	 M13.981,10.275h2.936v2.936h-2.936V10.275z M13.981,16.982v-2.935h2.936v2.935H13.981z M21.529,10.275h2.936v2.936h-2.936V10.275z
	 M21.529,16.98v-2.933h2.936v2.933H21.529z M28.245,9.436h-2.94v-2.94h2.94V9.436z M13.563,19.5c0.925,0,1.677,0.752,1.677,1.678
	c0,0.924-0.752,1.676-1.677,1.676s-1.678-0.752-1.678-1.676C11.885,20.252,12.638,19.5,13.563,19.5 M23.207,19.5
	c0.925,0,1.677,0.752,1.677,1.678c0,0.924-0.752,1.676-1.677,1.676c-0.926,0-1.678-0.752-1.678-1.676
	C21.529,20.252,22.281,19.5,23.207,19.5 M5.596,4.824c-0.463,0-0.839-0.377-0.839-0.84s0.376-0.838,0.839-0.838
	c0.462,0,0.838,0.375,0.838,0.838S6.058,4.824,5.596,4.824 M8.815,5.662L8.467,3.564H7.213c-0.188-0.72-0.838-1.257-1.617-1.257
	c-0.925,0-1.678,0.754-1.678,1.678c0,0.926,0.753,1.678,1.678,1.678c0.779,0,1.43-0.537,1.617-1.258h0.543l0.21,1.258H7.954
	l0.093,0.486V6.15l1.073,5.607l0.438,2.291l0.563,2.941c-1.035,0.077-1.897,0.875-1.999,1.877c-0.061,0.59,0.134,1.18,0.53,1.616
	c0.398,0.441,0.966,0.693,1.556,0.693h0.838c0,1.387,1.129,2.516,2.516,2.516c1.388,0,2.517-1.129,2.517-2.516h4.612
	c0,1.387,1.127,2.516,2.517,2.516c1.388,0,2.517-1.129,2.517-2.516H27.4c0.23,0,0.418-0.188,0.418-0.42s-0.188-0.42-0.418-0.42
	h-1.824c-0.346-0.975-1.276-1.676-2.369-1.676c-1.094,0-2.023,0.701-2.369,1.676h-4.906c-0.347-0.975-1.276-1.676-2.37-1.676
	c-1.093,0-2.021,0.701-2.369,1.676h-0.984c-0.354,0-0.693-0.15-0.933-0.416c-0.242-0.268-0.355-0.613-0.319-0.971
	c0.063-0.633,0.648-1.127,1.331-1.127h0.326h0.026l2.569-0.002l4.547-0.002l2.996-0.002h4.553l1.687-0.002
	c1.153,0,2.093-0.938,2.093-2.09V5.658L8.815,5.662z"/>
</svg>
