<?xml version="1.0" encoding="utf-8"?>
<!-- Generator: Adobe Illustrator 16.0.0, SVG Export Plug-In . SVG Version: 6.00 Build 0)  -->
<!DOCTYPE svg PUBLIC "-//W3C//DTD SVG 1.1//EN" "http://www.w3.org/Graphics/SVG/1.1/DTD/svg11.dtd">
<svg version="1.1" id="Layer_1" xmlns="http://www.w3.org/2000/svg" xmlns:xlink="http://www.w3.org/1999/xlink" x="0px" y="0px"
	 width="46.31px" height="46.31px" viewBox="0 0 46.31 46.31" enable-background="new 0 0 46.31 46.31" xml:space="preserve">
<path fill="#FCEE23" d="M23.217,0.125c12.754,0,23.093,10.339,23.093,23.093c0,12.753-10.339,23.092-23.093,23.092
	S0.124,35.971,0.124,23.218C0.124,10.463,10.463,0.125,23.217,0.125"/>
<path fill="#0768B1" d="M37.361,16.721c-0.989,0.439-2.054,0.736-3.171,0.868c1.141-0.683,2.016-1.763,2.428-3.053
	c-1.066,0.633-2.247,1.092-3.505,1.339c-1.007-1.072-2.441-1.742-4.029-1.742c-3.048,0-5.521,2.471-5.521,5.519
	c0,0.433,0.049,0.854,0.145,1.258c-4.588-0.23-8.655-2.427-11.378-5.768c-0.476,0.815-0.747,1.764-0.747,2.776
	c0,1.914,0.975,3.604,2.455,4.594c-0.904-0.028-1.757-0.277-2.5-0.69c0,0.022,0,0.047,0,0.069c0,2.674,1.902,4.904,4.428,5.412
	c-0.463,0.127-0.952,0.193-1.454,0.193c-0.357,0-0.702-0.033-1.039-0.099c0.703,2.193,2.741,3.789,5.157,3.834
	c-1.891,1.479-4.271,2.362-6.856,2.362c-0.444,0-0.886-0.025-1.316-0.077c2.441,1.567,5.344,2.48,8.461,2.48
	c10.152,0,15.705-8.411,15.705-15.706c0-0.24-0.006-0.478-0.017-0.714C35.687,18.8,36.622,17.828,37.361,16.721"/>
</svg>
