<?xml version="1.0" encoding="utf-8"?>
<!-- Generator: Adobe Illustrator 16.0.0, SVG Export Plug-In . SVG Version: 6.00 Build 0)  -->
<!DOCTYPE svg PUBLIC "-//W3C//DTD SVG 1.1//EN" "http://www.w3.org/Graphics/SVG/1.1/DTD/svg11.dtd">
<svg version="1.1" id="Layer_1" xmlns="http://www.w3.org/2000/svg" xmlns:xlink="http://www.w3.org/1999/xlink" x="0px" y="0px"
	 width="46.31px" height="46.31px" viewBox="0 0 46.31 46.31" enable-background="new 0 0 46.31 46.31" xml:space="preserve">
<path fill="#FCEE23" d="M23.173,0h-0.012C10.4,0,0.024,10.379,0.024,23.142c0,5.063,1.632,9.755,4.406,13.565l-2.885,8.597
	l8.896-2.843c3.659,2.424,8.024,3.824,12.731,3.824c12.76,0,23.137-10.382,23.137-23.144C46.31,10.382,35.933,0,23.173,0"/>
<path fill="#0768B1" d="M36.639,32.68c-0.558,1.578-2.773,2.885-4.542,3.267c-1.209,0.257-2.788,0.463-8.104-1.741
	c-6.801-2.818-11.182-9.729-11.522-10.177c-0.327-0.449-2.749-3.66-2.749-6.981c0-3.321,1.688-4.938,2.367-5.632
	c0.558-0.57,1.481-0.83,2.366-0.83c0.286,0,0.544,0.014,0.774,0.026c0.681,0.029,1.021,0.069,1.471,1.142
	c0.558,1.346,1.918,4.667,2.08,5.008c0.165,0.341,0.33,0.804,0.098,1.252c-0.217,0.463-0.408,0.669-0.749,1.062
	c-0.341,0.394-0.665,0.694-1.007,1.117c-0.313,0.367-0.665,0.761-0.272,1.439c0.395,0.666,1.753,2.886,3.755,4.667
	c2.583,2.299,4.679,3.035,5.428,3.346c0.558,0.232,1.224,0.178,1.632-0.256c0.517-0.559,1.157-1.484,1.808-2.396
	c0.462-0.653,1.047-0.735,1.66-0.504c0.625,0.217,3.931,1.853,4.611,2.19c0.68,0.342,1.128,0.504,1.293,0.789
	C37.197,29.756,37.197,31.102,36.639,32.68"/>
</svg>
