<?xml version="1.0" encoding="utf-8"?>
<!-- Generator: Adobe Illustrator 16.0.0, SVG Export Plug-In . SVG Version: 6.00 Build 0)  -->
<!DOCTYPE svg PUBLIC "-//W3C//DTD SVG 1.1//EN" "http://www.w3.org/Graphics/SVG/1.1/DTD/svg11.dtd">
<svg version="1.1" id="Layer_1" xmlns="http://www.w3.org/2000/svg" xmlns:xlink="http://www.w3.org/1999/xlink" x="0px" y="0px"
	 width="34px" height="34px" viewBox="0 0 34 34" enable-background="new 0 0 34 34" xml:space="preserve">
<g>
	<defs>
		<rect id="SVGID_1_" x="4" y="3.964" width="26.04" height="26.036"/>
	</defs>
	<clipPath id="SVGID_2_">
		<use xlink:href="#SVGID_1_"  overflow="visible"/>
	</clipPath>
	<path clip-path="url(#SVGID_2_)" fill="#CD2027" d="M19.166,22.541l-0.32,0.053l-0.311,0.16v3.297
		c0.121,0.086,0.241,0.15,0.357,0.187l0.363,0.056c0.186,0,0.319-0.036,0.406-0.112c0.086-0.073,0.131-0.195,0.131-0.361v-2.734
		c0-0.181-0.051-0.315-0.158-0.406C19.525,22.587,19.371,22.541,19.166,22.541 M10.396,14.104h1.727V9.897l2.01-5.934h-1.756
		L11.31,8.02h-0.11l-1.12-4.056H8.338l2.058,6.123V14.104 M27.144,24.351h-2.808v1.032c0,0.288,0.045,0.488,0.143,0.602
		c0.1,0.111,0.265,0.166,0.498,0.166c0.246,0,0.414-0.048,0.513-0.143c0.095-0.095,0.147-0.302,0.147-0.626v-0.249h1.51v0.28
		c0,0.563-0.182,0.985-0.555,1.271c-0.367,0.282-0.918,0.425-1.648,0.425c-0.658,0-1.177-0.151-1.555-0.451
		c-0.377-0.298-0.567-0.715-0.567-1.242v-2.463c0-0.473,0.209-0.864,0.626-1.164c0.415-0.298,0.948-0.447,1.605-0.447
		c0.672,0,1.188,0.14,1.551,0.416c0.359,0.276,0.54,0.676,0.54,1.194V24.351 M21.346,25.964c0,0.374-0.119,0.659-0.354,0.861
		c-0.233,0.201-0.577,0.299-1.022,0.299c-0.297,0-0.56-0.038-0.789-0.113c-0.229-0.077-0.446-0.196-0.643-0.359v0.405h-1.521v-7.172
		h1.521v2.311c0.205-0.159,0.42-0.283,0.646-0.367c0.229-0.086,0.461-0.126,0.694-0.126c0.476,0,0.84,0.111,1.09,0.335
		c0.252,0.227,0.379,0.559,0.379,0.99V25.964z M15.578,27.053h-1.524v-0.629c-0.284,0.231-0.574,0.409-0.881,0.528
		c-0.303,0.124-0.598,0.185-0.884,0.185c-0.353,0-0.617-0.086-0.796-0.259c-0.177-0.169-0.268-0.424-0.268-0.764v-4.778h1.524v4.384
		c0,0.136,0.032,0.231,0.092,0.292c0.067,0.063,0.173,0.09,0.315,0.09c0.11,0,0.254-0.039,0.425-0.12
		c0.172-0.08,0.33-0.181,0.473-0.308v-4.34h1.524V27.053 M11.215,20.916H9.754v6.053H8.34v-6.053H6.878v-1.031h4.337V20.916
		 M25.283,16.994H8.756C6.128,16.994,4,19.042,4,21.564v3.864C4,27.952,6.128,30,8.756,30h16.527c2.626,0,4.758-2.048,4.758-4.571
		v-3.864C30.041,19.042,27.91,16.994,25.283,16.994 M21.307,14.084c0.258,0,0.52-0.147,0.792-0.295
		c0.274-0.15,0.536-0.371,0.788-0.657v0.78h1.367V6.871h-1.367v5.344c-0.127,0.152-0.27,0.278-0.42,0.379
		c-0.155,0.099-0.283,0.148-0.383,0.148c-0.129,0-0.223-0.036-0.277-0.113c-0.059-0.072-0.09-0.193-0.09-0.358V6.873h-1.365v5.882
		c0,0.421,0.083,0.734,0.24,0.942C20.752,13.907,20.989,14.084,21.307,14.084 M15.696,8.776c0-0.134,0.069-0.241,0.207-0.326
		c0.138-0.082,0.318-0.123,0.538-0.123c0.24,0,0.434,0.041,0.58,0.123c0.148,0.085,0.22,0.193,0.22,0.326v3.337
		c0,0.165-0.071,0.295-0.217,0.389c-0.144,0.094-0.338,0.141-0.583,0.141c-0.239,0-0.424-0.044-0.553-0.14
		c-0.127-0.091-0.192-0.221-0.192-0.39V8.776z M16.461,14.088c0.732,0,1.305-0.232,1.725-0.563c0.417-0.333,0.625-0.786,0.625-1.368
		V8.646c0-0.517-0.212-0.943-0.638-1.272c-0.426-0.328-0.971-0.492-1.641-0.492c-0.73,0-1.315,0.155-1.748,0.467
		c-0.434,0.313-0.651,0.729-0.651,1.258v3.521c0,0.579,0.211,1.036,0.634,1.379C15.19,13.85,15.756,14.088,16.461,14.088"/>
	<path clip-path="url(#SVGID_2_)" fill="#CD2027" d="M25.058,22.301c-0.233,0-0.401,0.049-0.504,0.151
		c-0.101,0.096-0.149,0.262-0.149,0.492v0.552h1.297v-0.552c0-0.23-0.054-0.395-0.154-0.492
		C25.447,22.35,25.281,22.301,25.058,22.301"/>
</g>
</svg>
