<?xml version="1.0" encoding="utf-8"?>
<!-- Generator: Adobe Illustrator 16.0.0, SVG Export Plug-In . SVG Version: 6.00 Build 0)  -->
<!DOCTYPE svg PUBLIC "-//W3C//DTD SVG 1.1//EN" "http://www.w3.org/Graphics/SVG/1.1/DTD/svg11.dtd">
<svg version="1.1" id="Layer_1" xmlns="http://www.w3.org/2000/svg" xmlns:xlink="http://www.w3.org/1999/xlink" x="0px" y="0px"
	 width="46.31px" height="46.31px" viewBox="0 0 46.31 46.31" enable-background="new 0 0 46.31 46.31" xml:space="preserve">
<path fill="#FCEE23" d="M23.154,0C35.943,0,46.31,10.367,46.31,23.154c0,12.788-10.366,23.154-23.155,23.154
	S0.001,35.942,0.001,23.154C0.001,10.368,10.366,0,23.154,0"/>
<path fill="#0768B1" d="M25.301,27.268l-0.319,0.052L24.67,27.48v3.296c0.121,0.086,0.241,0.15,0.357,0.188l0.364,0.056
	c0.185,0,0.318-0.036,0.405-0.113c0.086-0.073,0.13-0.194,0.13-0.36v-2.734c0-0.182-0.05-0.316-0.156-0.407
	C25.66,27.313,25.505,27.268,25.301,27.268 M16.531,18.831h1.727v-4.207l2.011-5.933h-1.757l-1.067,4.055h-0.11l-1.12-4.055h-1.741
	l2.059,6.123V18.831 M33.278,29.077H30.47v1.032c0,0.288,0.047,0.488,0.144,0.601c0.099,0.111,0.265,0.166,0.498,0.166
	c0.246,0,0.414-0.047,0.513-0.142c0.095-0.095,0.147-0.302,0.147-0.626v-0.249h1.51v0.28c0,0.563-0.181,0.984-0.555,1.27
	c-0.367,0.283-0.917,0.426-1.648,0.426c-0.658,0-1.177-0.151-1.554-0.451c-0.377-0.299-0.568-0.715-0.568-1.242v-2.463
	c0-0.473,0.209-0.864,0.626-1.164c0.415-0.299,0.948-0.447,1.606-0.447c0.671,0,1.188,0.139,1.55,0.416
	c0.359,0.275,0.54,0.675,0.54,1.193V29.077 M27.48,30.69c0,0.374-0.119,0.659-0.354,0.861c-0.232,0.201-0.578,0.299-1.021,0.299
	c-0.298,0-0.561-0.038-0.789-0.114c-0.23-0.077-0.447-0.196-0.645-0.358v0.404H23.15V24.61h1.521v2.311
	c0.206-0.158,0.421-0.283,0.646-0.367c0.229-0.086,0.461-0.125,0.693-0.125c0.477,0,0.841,0.111,1.091,0.334
	c0.253,0.227,0.379,0.559,0.379,0.99V30.69z M21.712,31.778h-1.523V31.15c-0.284,0.231-0.574,0.409-0.882,0.528
	c-0.303,0.123-0.598,0.184-0.884,0.184c-0.353,0-0.617-0.086-0.796-0.258c-0.177-0.169-0.268-0.424-0.268-0.764v-4.778h1.523v4.383
	c0,0.136,0.032,0.231,0.093,0.292c0.066,0.063,0.173,0.09,0.314,0.09c0.11,0,0.254-0.039,0.425-0.119
	c0.172-0.08,0.33-0.182,0.474-0.308v-4.34h1.523V31.778 M17.351,25.643h-1.462v6.052h-1.413v-6.052h-1.463V24.61h4.338V25.643
	 M31.418,21.721H14.892c-2.629,0-4.757,2.048-4.757,4.569v3.864c0,2.524,2.128,4.572,4.757,4.572h16.526
	c2.626,0,4.757-2.048,4.757-4.572V26.29C36.175,23.769,34.045,21.721,31.418,21.721 M27.441,18.811c0.258,0,0.52-0.148,0.792-0.295
	c0.274-0.151,0.537-0.371,0.789-0.657v0.78h1.366v-7.041h-1.366v5.344c-0.128,0.152-0.271,0.278-0.421,0.378
	c-0.155,0.099-0.283,0.149-0.383,0.149c-0.129,0-0.223-0.036-0.277-0.113c-0.059-0.073-0.09-0.194-0.09-0.359V11.6h-1.365v5.882
	c0,0.42,0.083,0.734,0.24,0.942C26.887,18.633,27.124,18.811,27.441,18.811 M21.831,13.502c0-0.134,0.069-0.241,0.207-0.326
	c0.138-0.082,0.318-0.123,0.538-0.123c0.24,0,0.434,0.041,0.58,0.123c0.147,0.085,0.22,0.193,0.22,0.326v3.337
	c0,0.165-0.072,0.295-0.217,0.389c-0.145,0.093-0.338,0.14-0.583,0.14c-0.239,0-0.424-0.044-0.553-0.139
	c-0.127-0.091-0.192-0.221-0.192-0.39V13.502z M22.596,18.814c0.732,0,1.306-0.233,1.726-0.564c0.417-0.333,0.625-0.786,0.625-1.368
	v-3.511c0-0.516-0.212-0.943-0.637-1.272c-0.428-0.328-0.973-0.492-1.642-0.492c-0.729,0-1.314,0.155-1.748,0.466
	c-0.434,0.313-0.65,0.73-0.65,1.258v3.522c0,0.579,0.211,1.036,0.634,1.379C21.325,18.575,21.892,18.814,22.596,18.814"/>
<path fill="#FFFFFF" d="M31.192,27.027c-0.234,0-0.401,0.049-0.504,0.151c-0.102,0.096-0.15,0.262-0.15,0.491v0.552h1.298V27.67
	c0-0.229-0.054-0.394-0.154-0.491C31.581,27.076,31.415,27.027,31.192,27.027"/>
</svg>
